<svg width="56" height="56" viewBox="0 0 56 56" fill="none" xmlns="http://www.w3.org/2000/svg">
<path fill-rule="evenodd" clip-rule="evenodd" d="M49.2131 19.5147L44.2633 24.4645L42.142 26.5858C41.6187 27.1052 40.9608 27.4681 40.2424 27.6339C40.389 28.0038 40.3018 28.4255 40.0207 28.7071L37.8994 30.8284C37.3761 31.3478 36.7182 31.7108 35.9998 31.8765C36.1463 32.2465 36.0592 32.6681 35.7781 32.9498L33.6567 35.0711C33.1334 35.5904 32.4756 35.9534 31.7572 36.1191C31.9037 36.4891 31.8166 36.9108 31.5354 37.1924L29.4141 39.3137C28.8908 39.8331 28.2329 40.1961 27.5145 40.3618C27.661 40.7318 27.5739 41.1534 27.2928 41.435L25.1715 43.5564C23.6084 45.1161 21.0777 45.1161 19.5146 43.5564L16.6862 40.7279L7.49378 49.9203L6.07957 48.5061L15.272 39.3137L12.4435 36.4853C10.8838 34.9222 10.8838 32.3915 12.4435 30.8284L14.5649 28.7071C14.8465 28.426 15.2681 28.3389 15.6381 28.4854C15.8038 27.767 16.1668 27.1091 16.6862 26.5858L18.8075 24.4645C19.0891 24.1833 19.5108 24.0962 19.8808 24.2427C20.0465 23.5243 20.4095 22.8665 20.9288 22.3432L23.0501 20.2218C23.3318 19.9407 23.7534 19.8536 24.1234 20.0001C24.2891 19.2817 24.6521 18.6238 25.1715 18.1005L27.2928 15.9792C27.5744 15.6981 27.9961 15.6109 28.366 15.7575C28.5318 15.039 28.8947 14.3812 29.4141 13.8579L36.4852 6.78681L37.8994 8.20103L33.6567 12.4437L36.0588 14.8458C36.7519 13.4977 38.0193 12.5371 39.5045 12.2341L43.0632 11.5225L48.506 6.07971L49.9202 7.49392L44.4774 12.9367L43.7658 16.4954C43.4628 17.9806 42.5022 19.248 41.1541 19.9411L43.5562 22.3432L47.7989 18.1005L49.2131 19.5147ZM37.8994 25.1716C38.6809 25.9514 39.9462 25.9514 40.7278 25.1716L42.142 23.7574L39.3136 20.9289C39.1363 20.7532 38.9274 20.6126 38.6979 20.5144L37.1003 20.5146C36.871 20.6128 36.6623 20.7534 36.4852 20.9289L35.0709 22.3432L37.8994 25.1716ZM37.8994 28L36.4852 29.4142C35.7036 30.194 34.4383 30.194 33.6567 29.4142L30.8283 26.5858L32.2425 25.1716C33.0241 24.3918 34.2894 24.3918 35.0709 25.1716L37.8994 28ZM32.2425 33.6569L33.6567 32.2427L30.8283 29.4142C30.0467 28.6344 28.7814 28.6344 27.9999 29.4142L26.5857 30.8284L29.4141 33.6569C30.1957 34.4367 31.4609 34.4367 32.2425 33.6569ZM29.4141 36.4853L27.9999 37.8995C27.2183 38.6793 25.953 38.6793 25.1715 37.8995L22.343 35.0711L23.7572 33.6569C24.5388 32.8771 25.8041 32.8771 26.5857 33.6569L29.4141 36.4853ZM19.5146 26.5858L18.1004 28C17.3206 28.7816 17.3206 30.0469 18.1004 30.8284L20.9288 33.6569L22.343 32.2427C23.1228 31.4611 23.1228 30.1958 22.343 29.4142L19.5146 26.5858ZM22.343 23.7574L23.7572 22.3432L26.5857 25.1716C27.3655 25.9532 27.3655 27.2184 26.5857 28L25.1715 29.4142L22.343 26.5858C21.5632 25.8042 21.5632 24.5389 22.343 23.7574ZM27.9999 18.1005L26.5857 19.5147C25.8059 20.2963 25.8059 21.5616 26.5857 22.3432L29.4141 25.1716L30.8283 23.7574C31.6081 22.9758 31.6081 21.7105 30.8283 20.9289L27.9999 18.1005ZM30.8283 15.2721L32.2425 13.8579L35.0709 16.6863C35.2467 16.8636 35.3874 17.0725 35.4856 17.302L35.4853 18.8996C35.3871 19.1289 35.2465 19.3376 35.0709 19.5147L33.6567 20.9289L30.8283 18.1005C30.0485 17.3189 30.0485 16.0537 30.8283 15.2721ZM42.2815 13.7184L39.8967 14.1952C38.5339 14.4725 37.5398 15.6493 37.494 17.0393C37.6136 17.4724 37.6592 17.9225 37.6291 18.3708C38.0774 18.3406 38.5276 18.3863 38.9607 18.5058C40.3506 18.4601 41.5273 17.4659 41.8047 16.1031L42.2815 13.7184ZM13.8577 32.2427L15.272 30.8284L18.1004 33.6569C18.8802 34.4384 18.8802 35.7037 18.1004 36.4853L16.6862 37.8995L13.8577 35.0711C13.078 34.2895 13.078 33.0242 13.8577 32.2427ZM20.9288 42.1422C21.7104 42.9219 22.9757 42.9219 23.7572 42.1422L25.1715 40.7279L22.343 37.8995C21.5615 37.1197 20.2962 37.1197 19.5146 37.8995L18.1004 39.3137L20.9288 42.1422Z" fill="#07172E"/>
</svg>
