<svg width="50" height="60" viewBox="0 0 50 60" fill="none" xmlns="http://www.w3.org/2000/svg">
<path fill-rule="evenodd" clip-rule="evenodd" d="M49.0172 0H21.1484C20.5868 0 20.1656 0.422535 20.1656 0.985915V21.5493L22.1312 23.2394V1.97183H48.0344V38.169H41.6464C41.9272 38.8028 41.9974 39.507 41.7868 40.1408H49.0172C49.5788 40.1408 50 39.7183 50 39.1549V0.985915C50 0.422535 49.5086 0 49.0172 0ZM44.5245 7.88732V14.7887C44.5245 15.3521 44.1033 15.7746 43.5417 15.7746H26.5537C25.9921 15.7746 25.5709 15.3521 25.5709 14.7887V7.88732C25.5709 7.32394 25.9921 6.90141 26.5537 6.90141H43.5417C44.1033 6.90141 44.5245 7.32394 44.5245 7.88732ZM27.5365 13.8028H42.559V8.94366H27.5365V13.8028ZM31.8888 34.4366C31.959 34.0845 32.2398 33.8732 32.5908 33.8732C32.5908 33.8732 32.661 33.8732 32.8014 33.9437C33.2226 34.0141 33.4332 34.3662 33.363 34.7887L32.2398 39.8592C32.2398 40 32.0994 40.1408 32.0292 40.2113L31.3272 37.1831L31.8888 34.4366ZM34.9073 46.2676C34.8371 46.6901 35.0477 47.0423 35.4689 47.1127L40.5232 48.2394H40.6636C41.0146 48.2394 41.2954 48.0282 41.3656 47.6761C41.4358 47.2535 41.2252 46.9014 40.804 46.831L35.7497 45.7042H35.6093C35.2583 45.7042 34.9775 45.9155 34.9073 46.2676ZM33.0822 49.1549C33.363 49.1549 33.5736 49.2958 33.714 49.507L36.5219 53.8732C36.7325 54.2254 36.6623 54.6479 36.3113 54.8592C36.1709 54.9296 36.0305 55 35.8901 55C35.6093 55 35.3987 54.8592 35.2583 54.6479L32.4504 50.2817C32.2398 49.9296 32.31 49.507 32.661 49.2958C32.8014 49.2254 32.9418 49.1549 33.0822 49.1549ZM29.0107 49.8592H28.8703C28.5193 49.8592 28.2385 50.0704 28.1683 50.4225L27.0451 55.493C26.9749 55.9155 27.1855 56.2676 27.6067 56.338H27.7471C28.0981 56.338 28.3789 56.1268 28.4491 55.7746L29.5722 50.7042C29.6424 50.3521 29.4318 49.9296 29.0107 49.8592ZM25.9921 47.6761C26.2027 48.0282 26.1325 48.4507 25.7815 48.662L21.4292 51.4789C21.2888 51.5493 21.1484 51.6197 21.008 51.6197C20.7272 51.6197 20.5166 51.4789 20.3762 51.2676C20.1656 50.9155 20.2358 50.493 20.5868 50.2817L24.9391 47.4648C25.0795 47.3944 25.2199 47.3239 25.3603 47.3239C25.6411 47.3239 25.8517 47.4648 25.9921 47.6761ZM19.6743 41.9718C19.3233 41.9718 19.0425 42.1831 18.9723 42.5352C18.9021 42.9577 19.1127 43.3099 19.5339 43.3803L24.5881 44.507H24.7285C25.0795 44.507 25.3603 44.2958 25.4305 43.9437C25.5007 43.5211 25.2901 43.169 24.8689 43.0986L19.8146 41.9718H19.6743ZM39.049 33.8028L35.1179 39.507C34.9775 39.7183 34.7669 39.8592 34.5563 39.7887C34.4159 39.7887 34.2755 39.7183 34.1351 39.6479C33.7841 39.4366 33.7139 39.0141 33.9245 38.662L37.8557 32.9577C37.9961 32.8169 38.2067 32.6761 38.4172 32.6761C38.5576 32.6761 38.698 32.7465 38.8384 32.8169C39.1894 33.0282 39.2596 33.4507 39.049 33.8028ZM44.3139 42.0423H44.1735L37.3643 43.2394C36.9431 43.3099 36.7325 43.662 36.8027 44.0845C36.8729 44.4366 37.1537 44.6479 37.5047 44.6479H37.6451L44.4543 43.4507C44.8755 43.3803 45.0861 43.0282 45.0159 42.6056C44.9457 42.3239 44.6649 42.0423 44.3139 42.0423ZM36.1709 48.8028C36.3113 48.8028 36.4517 48.8732 36.5921 48.9437L42.2782 52.8873C42.6292 53.0986 42.6994 53.5211 42.4888 53.8732C42.3484 54.0141 42.1378 54.1549 41.9272 54.1549C41.7868 54.1549 41.6464 54.0845 41.506 54.0141L35.8199 50.0704C35.4689 49.8592 35.3987 49.4366 35.6093 49.0845C35.7497 48.9437 35.9603 48.8028 36.1709 48.8028ZM31.3272 51.7606H31.1868C30.7656 51.831 30.555 52.1831 30.6252 52.6056L31.8186 59.4366C31.8888 59.7887 32.1696 60 32.5206 60H32.661C33.0822 59.9296 33.2928 59.5775 33.2226 59.1549L32.0292 52.3239C31.959 51.9718 31.6782 51.7606 31.3272 51.7606ZM25.2199 50.7042C25.3603 50.5634 25.5709 50.4225 25.7815 50.4225C25.9219 50.4225 26.0623 50.4225 26.2027 50.5634C26.5537 50.7746 26.6239 51.1972 26.4133 51.5493L22.4822 57.2535C22.3418 57.3944 22.1312 57.5352 21.9206 57.5352C21.7802 57.5352 21.6398 57.4648 21.4994 57.3944C21.1484 57.1831 21.0782 56.7606 21.2888 56.4085L25.2199 50.7042ZM23.5352 46.1268C23.465 45.7747 23.1842 45.5634 22.8332 45.5634H22.6928L15.8835 46.7606C15.4623 46.831 15.2517 47.1831 15.3219 47.6056C15.3921 47.9577 15.6729 48.169 16.0239 48.169H16.1643L22.9736 46.9718C23.3246 46.9014 23.6054 46.5493 23.5352 46.1268ZM18.4809 36.0563C18.6213 36.0563 18.7617 36.1268 18.9021 36.1972L24.5881 40.1408C24.9391 40.3521 25.0093 40.7747 24.7987 41.1268C24.6583 41.2676 24.4477 41.4085 24.2372 41.4085C24.0968 41.4085 23.9564 41.338 23.816 41.2676L23.816 41.2676L18.1299 37.3239C17.7789 37.1127 17.7087 36.6901 17.9193 36.338C18.0597 36.1972 18.2703 36.0563 18.4809 36.0563ZM39.8914 38.9437C39.751 38.7324 39.5404 38.5915 39.2596 38.5915C39.1192 38.5915 38.9788 38.662 38.8384 38.7324L34.4861 41.5493C34.1351 41.7606 34.0649 42.1831 34.2755 42.5352C34.4159 42.7465 34.6265 42.8873 34.9073 42.8873C35.0477 42.8873 35.1881 42.8169 35.3285 42.7465L39.6808 39.9296C40.0318 39.7887 40.102 39.2958 39.8914 38.9437ZM30.906 42.8873L29.502 36.6901C29.4318 36.4084 29.2914 36.1972 29.0808 36.0563L21.9206 30.1408L22.9736 28.8732C23.114 28.662 23.2544 28.3803 23.1842 28.169C23.1842 27.8873 23.0438 27.6761 22.8332 27.4648L5.00277 12.4648C4.79217 12.3239 4.58157 12.2535 4.30078 12.2535C4.01999 12.2535 3.80939 12.3944 3.5988 12.6056L0.229267 16.6197C0.0888703 16.831 -0.0515267 17.1127 0.0186718 17.3239C0.0186718 17.6056 0.159069 17.8169 0.369664 18.0282L18.2001 33.0282C18.4107 33.169 18.6213 33.2394 18.8319 33.2394H18.9021C19.1829 33.2394 19.3935 33.0986 19.6041 32.8873L20.306 32.0423L27.1855 37.6761L28.4491 43.3099L29.7828 46.4085L30.9762 46.1268L30.906 42.8873ZM18.6915 30.7746L2.40542 17.1127L4.51138 14.5775L20.7974 28.2394L18.6915 30.7746Z" fill="#07172E"/>
</svg>
