<svg width="130" height="130" viewBox="0 0 130 130" fill="none" xmlns="http://www.w3.org/2000/svg">
<path d="M0 0H130V130H0V0Z" fill="#006600"/>
<path d="M0 0H130V92.8535H0V0Z" fill="white"/>
<path d="M0 0H130V37.1465H0V0Z" fill="#CC0000"/>
<path d="M59.8001 63.2729C60.0536 62.837 60.4422 62.4954 60.907 62.2999C61.3719 62.1044 61.8878 62.0657 62.3767 62.1895C62.8656 62.3132 63.3009 62.5929 63.6167 62.9861C63.9325 63.3792 64.1117 63.8646 64.1272 64.3686V73.6544H65.8729V64.3686C65.8884 63.8646 66.0676 63.3792 66.3834 62.9861C66.6992 62.5929 67.1345 62.3132 67.6234 62.1895C68.1123 62.0657 68.6282 62.1044 69.0931 62.2999C69.558 62.4954 69.9465 62.837 70.2001 63.2729C70.4731 62.4496 70.5468 61.5732 70.415 60.7159C70.2833 59.8586 69.9498 59.0448 69.4421 58.3415C68.9344 57.6382 68.267 57.0655 67.4947 56.6705C66.7225 56.2755 65.8675 56.0696 65.0001 56.0696C64.1327 56.0696 63.2777 56.2755 62.5054 56.6705C61.7331 57.0655 61.0657 57.6382 60.558 58.3415C60.0503 59.0448 59.7168 59.8586 59.5851 60.7159C59.4533 61.5732 59.527 62.4496 59.8001 63.2729Z" fill="#F8C300"/>
<path d="M61.0449 60.8401C61.8079 60.6852 62.6003 60.774 63.3102 61.0939C64.02 61.4138 64.6113 61.9487 65.0006 62.623C65.3899 61.9487 65.9813 61.4138 66.6911 61.0939C67.4009 60.774 68.1933 60.6852 68.9563 60.8401C68.825 59.8843 68.3521 59.0083 67.6249 58.3741C66.8977 57.74 65.9655 57.3906 65.0006 57.3906C64.0358 57.3906 63.1036 57.74 62.3764 58.3741C61.6492 59.0083 61.1762 59.8843 61.0449 60.8401Z" fill="white"/>
<path d="M64.1272 69.9401C64.0071 71.2557 63.5202 72.5112 62.7218 73.5637C61.9234 74.6163 60.8457 75.4236 59.6111 75.8938C58.3765 76.364 57.0348 76.4783 55.7385 76.2235C54.4422 75.9688 53.2434 75.3553 52.2786 74.4529C51.8674 75.4902 51.225 76.42 50.4003 77.1716C49.5756 77.9232 48.5903 78.4768 47.5194 78.7902C46.4485 79.1036 45.3203 79.1685 44.2205 78.9801C43.1207 78.7917 42.0784 78.3549 41.1729 77.7029C41.86 84.463 52 83.0887 52.7429 76.5144C55.9372 82.1044 62.9572 80.5072 65 73.6544L64.1272 69.9401Z" fill="#F8C300"/>
<path d="M57.3488 81.9558C55.9374 85.0201 53.1145 85.5401 50.6445 83.0701C50.6445 83.0701 51.6288 82.3644 52.6874 82.1787C52.6227 81.7046 52.6605 81.2222 52.7983 80.7641C52.9361 80.3059 53.1706 79.8827 53.486 79.5229C54.2801 80.0378 54.8709 80.8124 55.1574 81.7144C56.6431 81.5287 57.3488 81.9558 57.3488 81.9558Z" fill="#F8C300"/>
<path d="M46.9854 88.7716C58.74 85.2726 71.2593 85.2726 83.014 88.7716" stroke="#F8C300" stroke-width="11.7029"/>
<path d="M69.5367 43.0975L62.1966 48.4303L65.0003 39.8016L67.8039 48.4303L60.4639 43.0975H69.5367Z" fill="#F8C300"/>
<rect x="0.5" y="0.5" width="129" height="129" rx="64.5" stroke="#EBEBEB"/>
</svg>
