<svg width="130" height="130" viewBox="0 0 130 130" fill="none" xmlns="http://www.w3.org/2000/svg">
<path d="M0 86.6582H130V130H0V86.6582Z" fill="#1EB53A"/>
<path d="M0 0H130V43.3418H0V0Z" fill="#0099B5"/>
<path d="M0 41.5898H130V88.4102H0V41.5898Z" fill="#CE1126"/>
<path d="M0 44.1797H130V85.8203H0V44.1797Z" fill="white"/>
<path d="M36.4102 36.3848C45.0202 36.3848 52 29.405 52 20.7949C52 12.1849 45.0202 5.20508 36.4102 5.20508C27.8001 5.20508 20.8203 12.1849 20.8203 20.7949C20.8203 29.405 27.8001 36.3848 36.4102 36.3848Z" fill="white"/>
<path d="M41.5898 36.3848C50.1999 36.3848 57.1797 29.405 57.1797 20.7949C57.1797 12.1849 50.1999 5.20508 41.5898 5.20508C32.9798 5.20508 26 12.1849 26 20.7949C26 29.405 32.9798 36.3848 41.5898 36.3848Z" fill="#0099B5"/>
<path d="M70.7126 30.1417L69.7246 33.1057L71.2326 33.6257" fill="white"/>
<rect x="0.5" y="0.5" width="129" height="129" rx="64.5" stroke="#EBEBEB"/>
</svg>
