<svg width="130" height="130" viewBox="0 0 130 130" fill="none" xmlns="http://www.w3.org/2000/svg">
<path fill-rule="evenodd" clip-rule="evenodd" d="M-48.75 0H178.741V129.98H-48.75V0Z" fill="white"/>
<path fill-rule="evenodd" clip-rule="evenodd" d="M-48.75 87.2911H178.741V130.006H-48.75V87.2911Z" fill="#DA0000"/>
<path fill-rule="evenodd" clip-rule="evenodd" d="M-5.51074 89.0992H6.96316V89.964H-5.51074V89.0992ZM-3.65014 93.397H-2.78535V94.2356H-3.67635L-3.65014 93.397ZM6.98936 93.3708V94.2356H4.49982V93.3708H6.98936ZM8.32585 89.0992H9.19064V94.2356H8.32585V89.0992Z" fill="white"/>
<path fill-rule="evenodd" clip-rule="evenodd" d="M13.2789 93.3708V94.2356H8.56188V93.3708H13.2789ZM4.5 91.3792H5.36479V94.2356H4.5V91.3792Z" fill="white"/>
<path fill-rule="evenodd" clip-rule="evenodd" d="M12.5712 89.0992H13.436V94.2356H12.5974L12.5712 89.0992ZM10.4485 89.0992H11.2871V94.2356H10.4747L10.4485 89.0992ZM-0.924751 91.1433V92.0081H-5.51074V91.1433H-0.924751ZM9.0334 91.1433V92.0081H4.49982V91.1433H9.0334Z" fill="white"/>
<path fill-rule="evenodd" clip-rule="evenodd" d="M4.5 91.3529H5.36479V94.2355H4.5V91.3529Z" fill="white"/>
<path fill-rule="evenodd" clip-rule="evenodd" d="M4.5 91.3529H5.36479V94.2355H4.5V91.3529Z" fill="white"/>
<path fill-rule="evenodd" clip-rule="evenodd" d="M4.49982 91.3529H5.36461V94.2355H4.49982V91.3529ZM-5.45833 91.3529H-4.61975V94.2355H-5.51074L-5.45833 91.3529ZM1.82684 91.3529H2.69163V94.2355H1.82684V91.3529ZM-1.78954 91.3529H-0.924751V94.2355H-1.78954V91.3529Z" fill="white"/>
<path fill-rule="evenodd" clip-rule="evenodd" d="M2.42938 93.3707V94.2355H-1.42285V93.3707H2.42938ZM2.69144 91.1432V92.008H0.254309V91.1432H2.69144Z" fill="white"/>
<path fill-rule="evenodd" clip-rule="evenodd" d="M14.7988 89.0992H27.2465V89.964H14.7988V89.0992ZM16.6332 93.397H17.498V94.2356H16.6594L16.6332 93.397ZM27.2727 93.3708V94.2356H24.7832V93.3708H27.2727ZM28.6092 89.0992H29.474V94.2356H28.6092V89.0992Z" fill="white"/>
<path fill-rule="evenodd" clip-rule="evenodd" d="M33.5883 93.3708V94.2356H28.8713V93.3708H33.5883ZM24.7832 91.3792H25.648V94.2356H24.7832V91.3792Z" fill="white"/>
<path fill-rule="evenodd" clip-rule="evenodd" d="M32.8809 89.0992H33.7457V94.2356H32.8809V89.0992ZM30.732 89.0992H31.5968V94.2356H30.732V89.0992ZM19.3588 91.1433V92.0081H14.8252V91.1433H19.3588ZM29.3169 91.1433V92.0081H24.7834V91.1433H29.3169Z" fill="white"/>
<path fill-rule="evenodd" clip-rule="evenodd" d="M24.7832 91.3529H25.648V94.2355H24.7832V91.3529Z" fill="white"/>
<path fill-rule="evenodd" clip-rule="evenodd" d="M24.7832 91.3529H25.648V94.2355H24.7832V91.3529Z" fill="white"/>
<path fill-rule="evenodd" clip-rule="evenodd" d="M24.7833 91.3529H25.6481V94.2355H24.7833V91.3529ZM14.8252 91.3529H15.6638V94.2355H14.8252V91.3529ZM22.1366 91.3529H22.9752V94.2355H22.1366V91.3529ZM18.494 91.3529H19.3588V94.2355H18.494V91.3529Z" fill="white"/>
<path fill-rule="evenodd" clip-rule="evenodd" d="M22.7398 93.3707V94.2355H18.8613V93.3707H22.7398ZM23.0018 91.1432V92.008H20.5385V91.1432H23.0018Z" fill="white"/>
<path fill-rule="evenodd" clip-rule="evenodd" d="M35.2129 89.0992H47.6606V89.964H35.2129V89.0992ZM37.0735 93.397H37.9383V94.2356H37.0735V93.397ZM47.713 93.3708V94.2356H45.2234V93.3708H47.713ZM49.0233 89.0992H49.8881V94.2356H49.0495L49.0233 89.0992Z" fill="white"/>
<path fill-rule="evenodd" clip-rule="evenodd" d="M54.0025 93.3708V94.2356H49.2855V93.3708H54.0025ZM45.2236 91.3792H46.0622V94.2356H45.2236V91.3792Z" fill="white"/>
<path fill-rule="evenodd" clip-rule="evenodd" d="M53.2949 89.0992H54.1597V94.2356H53.2949V89.0992ZM51.1723 89.0992H52.0109V94.2356H51.1461L51.1723 89.0992ZM39.7728 91.1433V92.0081H35.2393V91.1433H39.7728ZM49.7572 91.1433V92.0081H45.2236V91.1433H49.7572Z" fill="white"/>
<path fill-rule="evenodd" clip-rule="evenodd" d="M45.2236 91.3529H46.0622V94.2355H45.2236V91.3529Z" fill="white"/>
<path fill-rule="evenodd" clip-rule="evenodd" d="M45.2236 91.3529H46.0622V94.2355H45.2236V91.3529Z" fill="white"/>
<path fill-rule="evenodd" clip-rule="evenodd" d="M45.2236 91.3529H46.0622V94.2355H45.2236V91.3529ZM35.2393 91.3529H36.104V94.2355H35.2393V91.3529ZM42.5506 91.3529H43.4154V94.2355H42.5506V91.3529ZM38.9343 91.3529H39.799V94.2355H38.9343V91.3529Z" fill="white"/>
<path fill-rule="evenodd" clip-rule="evenodd" d="M43.153 93.3707V94.2355H39.3008V93.3707H43.153ZM43.4151 91.1432V92.008H40.9779V91.1432H43.4151Z" fill="white"/>
<path fill-rule="evenodd" clip-rule="evenodd" d="M55.7061 89.0992H68.18V89.964H55.7061V89.0992ZM57.5667 93.397H58.4314V94.2356H57.5667V93.397ZM68.2062 93.3708V94.2356H65.7166V93.3708H68.2062ZM69.5426 89.0992H70.4074V94.2356H69.5426V89.0992Z" fill="white"/>
<path fill-rule="evenodd" clip-rule="evenodd" d="M74.4957 93.3708V94.2356H69.7787V93.3708H74.4957ZM65.7168 91.3792H66.5816V94.2356H65.7168V91.3792Z" fill="white"/>
<path fill-rule="evenodd" clip-rule="evenodd" d="M73.7881 89.0992H74.6529V94.2356H73.7881V89.0992ZM71.6655 89.0992H72.504V94.2356H71.6655V89.0992ZM60.2922 91.1433V92.0081H55.7324V91.1433H60.2922ZM70.2503 91.1433V92.0081H65.7168V91.1433H70.2503Z" fill="white"/>
<path fill-rule="evenodd" clip-rule="evenodd" d="M65.7168 91.3529H66.5816V94.2355H65.7168V91.3529Z" fill="white"/>
<path fill-rule="evenodd" clip-rule="evenodd" d="M65.7168 91.3529H66.5816V94.2355H65.7168V91.3529Z" fill="white"/>
<path fill-rule="evenodd" clip-rule="evenodd" d="M65.7168 91.3529H66.5816V94.2355H65.7168V91.3529ZM55.7586 91.3529H56.5972V94.2355H55.7324L55.7586 91.3529ZM63.0438 91.3529H63.9086V94.2355H63.0438V91.3529ZM59.4274 91.3529H60.2922V94.2355H59.4274V91.3529Z" fill="white"/>
<path fill-rule="evenodd" clip-rule="evenodd" d="M63.6725 93.3707V94.2355H59.8203V93.3707H63.6725ZM63.9084 91.1432V92.008H61.4713V91.1432H63.9084Z" fill="white"/>
<path fill-rule="evenodd" clip-rule="evenodd" d="M-48.75 0H178.741V42.7152H-48.75V0Z" fill="#239F40"/>
<path fill-rule="evenodd" clip-rule="evenodd" d="M76.3301 89.0992H88.7778V89.964H76.3301V89.0992ZM78.1907 93.397H79.0555V94.2356H78.1907V93.397ZM88.8302 93.3708V94.2356H86.3406V93.3708H88.8302ZM90.1405 89.0992H91.0315V94.2356H90.1405V89.0992Z" fill="white"/>
<path fill-rule="evenodd" clip-rule="evenodd" d="M95.1197 93.3708V94.2356H90.4027V93.3708H95.1197ZM86.3408 91.3792H87.1794V94.2356H86.3408V91.3792Z" fill="white"/>
<path fill-rule="evenodd" clip-rule="evenodd" d="M94.4121 89.0992H95.2769V94.2356H94.4121V89.0992ZM92.2895 89.0992H93.1281V94.2356H92.2895V89.0992ZM80.9162 91.1433V92.0081H76.3564V91.1433H80.9162ZM90.8744 91.1433V92.0081H86.3408V91.1433H90.8744Z" fill="white"/>
<path fill-rule="evenodd" clip-rule="evenodd" d="M86.3408 91.3529H87.1794V94.2355H86.3408V91.3529Z" fill="white"/>
<path fill-rule="evenodd" clip-rule="evenodd" d="M86.3408 91.3529H87.1794V94.2355H86.3408V91.3529Z" fill="white"/>
<path fill-rule="evenodd" clip-rule="evenodd" d="M86.3408 91.3529H87.1794V94.2355H86.3408V91.3529ZM76.3564 91.3529H77.2212V94.2355H76.3564V91.3529ZM83.6678 91.3529H84.5326V94.2355H83.6678V91.3529ZM80.0515 91.3529H80.9162V94.2355H80.0515V91.3529Z" fill="white"/>
<path fill-rule="evenodd" clip-rule="evenodd" d="M84.2702 93.3707V94.2355H80.418V93.3707H84.2702ZM84.5323 91.1432V92.008H82.0951V91.1432H84.5323Z" fill="white"/>
<path fill-rule="evenodd" clip-rule="evenodd" d="M96.8223 89.0992H109.296V89.964H96.8223V89.0992ZM98.6829 93.397H99.5477V94.2356H98.6829V93.397ZM109.322 93.3708V94.2356H106.833V93.3708H109.322ZM110.659 89.0992H111.524V94.2356H110.659V89.0992Z" fill="white"/>
<path fill-rule="evenodd" clip-rule="evenodd" d="M115.612 93.3708V94.2356H110.895V93.3708H115.612ZM106.833 91.3792H107.698V94.2356H106.833V91.3792Z" fill="white"/>
<path fill-rule="evenodd" clip-rule="evenodd" d="M114.931 89.0992H115.769V94.2356H114.931V89.0992ZM112.782 89.0992H113.646V94.2356H112.782V89.0992ZM101.408 91.1433V92.0081H96.8486V91.1433H101.408ZM111.367 91.1433V92.0081H106.833V91.1433H111.367Z" fill="white"/>
<path fill-rule="evenodd" clip-rule="evenodd" d="M106.833 91.3529H107.698V94.2355H106.833V91.3529Z" fill="white"/>
<path fill-rule="evenodd" clip-rule="evenodd" d="M106.833 91.3529H107.698V94.2355H106.833V91.3529Z" fill="white"/>
<path fill-rule="evenodd" clip-rule="evenodd" d="M106.833 91.3529H107.698V94.2355H106.833V91.3529ZM96.8748 91.3529H97.7134V94.2355H96.8486L96.8748 91.3529ZM104.16 91.3529H105.025V94.2355H104.16V91.3529ZM100.544 91.3529H101.408V94.2355H100.544V91.3529Z" fill="white"/>
<path fill-rule="evenodd" clip-rule="evenodd" d="M104.763 93.3707V94.2355H100.937V93.3707H104.763ZM105.025 91.1432V92.008H102.587V91.1432H105.025Z" fill="white"/>
<path fill-rule="evenodd" clip-rule="evenodd" d="M117.342 89.0992H129.789V89.964H117.342V89.0992ZM119.176 93.397H120.041V94.2356H119.176V93.397ZM129.816 93.3708V94.2356H127.352V93.3708H129.816ZM131.152 89.0992H132.017V94.2356H131.152V89.0992Z" fill="white"/>
<path fill-rule="evenodd" clip-rule="evenodd" d="M136.131 93.3708V94.2356H131.414V93.3708H136.131ZM127.326 91.3792H128.191V94.2356H127.326V91.3792Z" fill="white"/>
<path fill-rule="evenodd" clip-rule="evenodd" d="M135.424 89.0992H136.289V94.2356H135.424V89.0992ZM133.275 89.0992H134.14V94.2356H133.275V89.0992ZM121.902 91.1433V92.0081H117.342V91.1433H121.902ZM131.86 91.1433V92.0081H127.352V91.1433H131.86Z" fill="white"/>
<path fill-rule="evenodd" clip-rule="evenodd" d="M127.352 91.3529H128.191V94.2355H127.326L127.352 91.3529Z" fill="white"/>
<path fill-rule="evenodd" clip-rule="evenodd" d="M127.352 91.3529H128.191V94.2355H127.326L127.352 91.3529Z" fill="white"/>
<path fill-rule="evenodd" clip-rule="evenodd" d="M127.352 91.3529H128.191V94.2355H127.326L127.352 91.3529ZM117.342 91.3529H118.207V94.2355H117.342V91.3529ZM124.679 91.3529H125.518V94.2355H124.653L124.679 91.3529ZM121.037 91.3529H121.902V94.2355H121.037V91.3529Z" fill="white"/>
<path fill-rule="evenodd" clip-rule="evenodd" d="M125.256 93.3707V94.2355H121.43V93.3707H125.256ZM125.518 91.1432V92.008H123.081V91.1432H125.518Z" fill="white"/>
<path fill-rule="evenodd" clip-rule="evenodd" d="M-5.51074 36.4259H6.96316V37.2645H-5.51074V36.4259ZM-3.65014 40.6974H-2.78535V41.536H-3.67635L-3.65014 40.6974ZM6.98936 40.6974V41.536H4.49982V40.6712L6.98936 40.6974ZM8.32585 36.4259H9.19064V41.536H8.32585V36.4259Z" fill="white"/>
<path fill-rule="evenodd" clip-rule="evenodd" d="M13.2789 40.6712V41.536H8.56188V40.6712H13.2789ZM4.5 38.6796H5.36479V41.5622H4.5V38.6796Z" fill="white"/>
<path fill-rule="evenodd" clip-rule="evenodd" d="M12.5712 36.4259H13.436V41.536H12.5974L12.5712 36.4259ZM10.4485 36.4259H11.2871V41.536H10.4747L10.4485 36.4259ZM-0.924751 38.4437V39.3085H-5.51074V38.47L-0.924751 38.4437ZM9.0334 38.4437V39.3085H4.49982V38.47L9.0334 38.4437Z" fill="white"/>
<path fill-rule="evenodd" clip-rule="evenodd" d="M4.5 38.6796H5.36479V41.5622H4.5V38.6796Z" fill="white"/>
<path fill-rule="evenodd" clip-rule="evenodd" d="M4.5 38.6796H5.36479V41.5622H4.5V38.6796Z" fill="white"/>
<path fill-rule="evenodd" clip-rule="evenodd" d="M4.49982 38.6796H5.36461V41.5622H4.49982V38.6796ZM-5.45833 38.6796H-4.61975V41.5622H-5.51074L-5.45833 38.6796ZM1.82684 38.6796H2.69163V41.5622H1.82684V38.6796ZM-1.78954 38.6796H-0.924751V41.5622H-1.78954V38.6796Z" fill="white"/>
<path fill-rule="evenodd" clip-rule="evenodd" d="M2.42938 40.6713V41.536H-1.42285V40.6713H2.42938ZM2.69144 38.47V39.3086H0.254309V38.47H2.69144Z" fill="white"/>
<path fill-rule="evenodd" clip-rule="evenodd" d="M14.7988 36.4259H27.2465V37.2645H14.7988V36.4259ZM16.6332 40.6974H17.498V41.536H16.6594L16.6332 40.6974ZM27.2727 40.6974V41.536H24.7832V40.6712L27.2727 40.6974ZM28.6092 36.4259H29.474V41.536H28.6092V36.4259Z" fill="white"/>
<path fill-rule="evenodd" clip-rule="evenodd" d="M33.5883 40.6712V41.536H28.8713V40.6712H33.5883ZM24.7832 38.6796H25.648V41.5622H24.7832V38.6796Z" fill="white"/>
<path fill-rule="evenodd" clip-rule="evenodd" d="M32.8809 36.4259H33.7457V41.536H32.8809V36.4259ZM30.732 36.4259H31.5968V41.536H30.732V36.4259ZM19.3588 38.4437V39.3085H14.8252V38.47L19.3588 38.4437ZM29.3169 38.4437V39.3085H24.7834V38.47L29.3169 38.4437Z" fill="white"/>
<path fill-rule="evenodd" clip-rule="evenodd" d="M24.7832 38.6796H25.648V41.5622H24.7832V38.6796Z" fill="white"/>
<path fill-rule="evenodd" clip-rule="evenodd" d="M24.7832 38.6796H25.648V41.5622H24.7832V38.6796Z" fill="white"/>
<path fill-rule="evenodd" clip-rule="evenodd" d="M24.7833 38.6796H25.6481V41.5622H24.7833V38.6796ZM14.8252 38.6796H15.6638V41.5622H14.8252V38.6796ZM22.1366 38.6796H22.9752V41.5622H22.1366V38.6796ZM18.494 38.6796H19.3588V41.5622H18.494V38.6796Z" fill="white"/>
<path fill-rule="evenodd" clip-rule="evenodd" d="M22.7398 40.6713V41.536H18.8613V40.6713H22.7398ZM23.0018 38.47V39.3086H20.5385V38.47H23.0018Z" fill="white"/>
<path fill-rule="evenodd" clip-rule="evenodd" d="M35.2129 36.4259H47.6606V37.2645H35.2129V36.4259ZM37.0735 40.6974H37.9383V41.536H37.0735V40.6974ZM47.713 40.6974V41.536H45.2234V40.6712L47.713 40.6974ZM49.0233 36.4259H49.8881V41.536H49.0495L49.0233 36.4259Z" fill="white"/>
<path fill-rule="evenodd" clip-rule="evenodd" d="M54.0025 40.6712V41.536H49.2855V40.6712H54.0025ZM45.2236 38.6796H46.0622V41.5622H45.2236V38.6796Z" fill="white"/>
<path fill-rule="evenodd" clip-rule="evenodd" d="M53.2949 36.4259H54.1597V41.536H53.2949V36.4259ZM51.1723 36.4259H52.0109V41.536H51.1461L51.1723 36.4259ZM39.7728 38.4437V39.3085H35.2393V38.47L39.7728 38.4437ZM49.7572 38.4437V39.3085H45.2236V38.47L49.7572 38.4437Z" fill="white"/>
<path fill-rule="evenodd" clip-rule="evenodd" d="M45.2236 38.6796H46.0622V41.5622H45.2236V38.6796Z" fill="white"/>
<path fill-rule="evenodd" clip-rule="evenodd" d="M45.2236 38.6796H46.0622V41.5622H45.2236V38.6796Z" fill="white"/>
<path fill-rule="evenodd" clip-rule="evenodd" d="M45.2236 38.6796H46.0622V41.5622H45.2236V38.6796ZM35.2393 38.6796H36.104V41.5622H35.2393V38.6796ZM42.5506 38.6796H43.4154V41.5622H42.5506V38.6796ZM38.9343 38.6796H39.799V41.5622H38.9343V38.6796Z" fill="white"/>
<path fill-rule="evenodd" clip-rule="evenodd" d="M43.153 40.6713V41.536H39.3008V40.6713H43.153ZM43.4151 38.47V39.3086H40.9779V38.47H43.4151Z" fill="white"/>
<path fill-rule="evenodd" clip-rule="evenodd" d="M55.7061 36.4259H68.18V37.2645H55.7061V36.4259ZM57.5667 40.6974H58.4314V41.536H57.5667V40.6974ZM68.2062 40.6974V41.536H65.7166V40.6712L68.2062 40.6974ZM69.5426 36.4259H70.4074V41.536H69.5426V36.4259Z" fill="white"/>
<path fill-rule="evenodd" clip-rule="evenodd" d="M74.4957 40.6712V41.536H69.7787V40.6712H74.4957ZM65.7168 38.6796H66.5816V41.5622H65.7168V38.6796Z" fill="white"/>
<path fill-rule="evenodd" clip-rule="evenodd" d="M73.7881 36.4259H74.6529V41.536H73.7881V36.4259ZM71.6655 36.4259H72.504V41.536H71.6655V36.4259ZM60.2922 38.4437V39.3085H55.7324V38.47L60.2922 38.4437ZM70.2503 38.4437V39.3085H65.7168V38.47L70.2503 38.4437Z" fill="white"/>
<path fill-rule="evenodd" clip-rule="evenodd" d="M65.7168 38.6796H66.5816V41.5622H65.7168V38.6796Z" fill="white"/>
<path fill-rule="evenodd" clip-rule="evenodd" d="M65.7168 38.6796H66.5816V41.5622H65.7168V38.6796Z" fill="white"/>
<path fill-rule="evenodd" clip-rule="evenodd" d="M65.7168 38.6796H66.5816V41.5622H65.7168V38.6796ZM55.7586 38.6796H56.5972V41.5622H55.7324L55.7586 38.6796ZM63.0438 38.6796H63.9086V41.5622H63.0438V38.6796ZM59.4274 38.6796H60.2922V41.5622H59.4274V38.6796Z" fill="white"/>
<path fill-rule="evenodd" clip-rule="evenodd" d="M63.6725 40.6713V41.536H59.8203V40.6713H63.6725ZM63.9084 38.47V39.3086H61.4713V38.47H63.9084Z" fill="white"/>
<path fill-rule="evenodd" clip-rule="evenodd" d="M76.3301 36.4259H88.7778V37.2645H76.3301V36.4259ZM78.1907 40.6974H79.0555V41.536H78.1907V40.6974ZM88.8302 40.6974V41.536H86.3406V40.6712L88.8302 40.6974ZM90.1405 36.4259H91.0315V41.536H90.1405V36.4259Z" fill="white"/>
<path fill-rule="evenodd" clip-rule="evenodd" d="M95.1197 40.6712V41.536H90.4027V40.6712H95.1197ZM86.3408 38.6796H87.1794V41.5622H86.3408V38.6796Z" fill="white"/>
<path fill-rule="evenodd" clip-rule="evenodd" d="M94.4121 36.4259H95.2769V41.536H94.4121V36.4259ZM92.2895 36.4259H93.1281V41.536H92.2895V36.4259ZM80.9162 38.4437V39.3085H76.3564V38.47L80.9162 38.4437ZM90.8744 38.4437V39.3085H86.3408V38.47L90.8744 38.4437Z" fill="white"/>
<path fill-rule="evenodd" clip-rule="evenodd" d="M86.3408 38.6796H87.1794V41.5622H86.3408V38.6796Z" fill="white"/>
<path fill-rule="evenodd" clip-rule="evenodd" d="M86.3408 38.6796H87.1794V41.5622H86.3408V38.6796Z" fill="white"/>
<path fill-rule="evenodd" clip-rule="evenodd" d="M86.3408 38.6796H87.1794V41.5622H86.3408V38.6796ZM76.3564 38.6796H77.2212V41.5622H76.3564V38.6796ZM83.6678 38.6796H84.5326V41.5622H83.6678V38.6796ZM80.0515 38.6796H80.9162V41.5622H80.0515V38.6796Z" fill="white"/>
<path fill-rule="evenodd" clip-rule="evenodd" d="M84.2702 40.6713V41.536H80.418V40.6713H84.2702ZM84.5323 38.47V39.3086H82.0951V38.47H84.5323Z" fill="white"/>
<path fill-rule="evenodd" clip-rule="evenodd" d="M96.8223 36.4259H109.296V37.2645H96.8223V36.4259ZM98.6829 40.6974H99.5477V41.536H98.6829V40.6974ZM109.322 40.6974V41.536H106.833V40.6712L109.322 40.6974ZM110.659 36.4259H111.524V41.536H110.659V36.4259Z" fill="white"/>
<path fill-rule="evenodd" clip-rule="evenodd" d="M115.612 40.6712V41.536H110.895V40.6712H115.612ZM106.833 38.6796H107.698V41.5622H106.833V38.6796Z" fill="white"/>
<path fill-rule="evenodd" clip-rule="evenodd" d="M114.931 36.4259H115.769V41.536H114.931V36.4259ZM112.782 36.4259H113.646V41.536H112.782V36.4259ZM101.408 38.4437V39.3085H96.8486V38.47L101.408 38.4437ZM111.367 38.4437V39.3085H106.833V38.47L111.367 38.4437Z" fill="white"/>
<path fill-rule="evenodd" clip-rule="evenodd" d="M106.833 38.6796H107.698V41.5622H106.833V38.6796Z" fill="white"/>
<path fill-rule="evenodd" clip-rule="evenodd" d="M106.833 38.6796H107.698V41.5622H106.833V38.6796Z" fill="white"/>
<path fill-rule="evenodd" clip-rule="evenodd" d="M106.833 38.6796H107.698V41.5622H106.833V38.6796ZM96.8748 38.6796H97.7134V41.5622H96.8486L96.8748 38.6796ZM104.16 38.6796H105.025V41.5622H104.16V38.6796ZM100.544 38.6796H101.408V41.5622H100.544V38.6796Z" fill="white"/>
<path fill-rule="evenodd" clip-rule="evenodd" d="M104.763 40.6713V41.536H100.937V40.6713H104.763ZM105.025 38.47V39.3086H102.587V38.47H105.025Z" fill="white"/>
<path fill-rule="evenodd" clip-rule="evenodd" d="M117.342 36.4259H129.789V37.2645H117.342V36.4259ZM119.176 40.6974H120.041V41.536H119.176V40.6974ZM129.816 40.6974V41.536H127.352V40.6712L129.816 40.6974ZM131.152 36.4259H132.017V41.536H131.152V36.4259Z" fill="white"/>
<path fill-rule="evenodd" clip-rule="evenodd" d="M136.131 40.6712V41.536H131.414V40.6712H136.131ZM127.326 38.6796H128.191V41.5622H127.326V38.6796Z" fill="white"/>
<path fill-rule="evenodd" clip-rule="evenodd" d="M135.424 36.4259H136.289V41.536H135.424V36.4259ZM133.275 36.4259H134.14V41.536H133.275V36.4259ZM121.902 38.4437V39.3085H117.342V38.47L121.902 38.4437ZM131.86 38.4437V39.3085H127.352V38.47L131.86 38.4437Z" fill="white"/>
<path fill-rule="evenodd" clip-rule="evenodd" d="M127.352 38.6796H128.191V41.5622H127.326L127.352 38.6796Z" fill="white"/>
<path fill-rule="evenodd" clip-rule="evenodd" d="M127.352 38.6796H128.191V41.5622H127.326L127.352 38.6796Z" fill="white"/>
<path fill-rule="evenodd" clip-rule="evenodd" d="M127.352 38.6796H128.191V41.5622H127.326L127.352 38.6796ZM117.342 38.6796H118.207V41.5622H117.342V38.6796ZM124.679 38.6796H125.518V41.5622H124.653L124.679 38.6796ZM121.037 38.6796H121.902V41.5622H121.037V38.6796Z" fill="white"/>
<path fill-rule="evenodd" clip-rule="evenodd" d="M125.256 40.6713V41.536H121.43V40.6713H125.256ZM125.518 38.47V39.3086H123.081V38.47H125.518Z" fill="white"/>
<path fill-rule="evenodd" clip-rule="evenodd" d="M-17.4866 86.2167H-15.9405V88.8372H-17.4866V86.2167ZM23.2632 86.2167H24.8093V88.8372H23.2632V86.2167ZM-48.75 86.2167H-47.2301V88.8372H-48.75V86.2167ZM-28.0737 86.2167H-26.5276V88.8372H-28.0737V86.2167ZM-7.52849 86.2167H-6.00856V88.8372H-7.52849V86.2167ZM2.63931 86.2167H4.15924V88.8372H2.63931V86.2167ZM12.9905 86.2167H14.5629V88.8372H12.9905V86.2167ZM33.431 86.2167H34.9771V88.8372H33.431V86.2167ZM85.0037 86.2167H86.5237V88.8372H85.0037V86.2167ZM43.8084 86.2167H45.3545V88.8372H43.8084V86.2167ZM53.9762 86.2167H55.5223V88.8372H53.9762V86.2167ZM64.2488 86.2167H65.7688V88.8372H64.2488V86.2167ZM74.5214 86.2167H76.0414V88.8372H74.5214V86.2167ZM156.545 86.2167H158.118V88.8372H156.545V86.2167ZM94.9619 86.2167H96.4818V88.8372H94.9357L94.9619 86.2167ZM105.313 86.2167H106.859V88.8372H105.313V86.2167ZM115.795 86.2167H117.342V88.8372H115.795V86.2167ZM125.649 86.2167H127.195V88.8372H125.649V86.2167ZM136.131 86.2167H137.677V88.8372H136.105L136.131 86.2167ZM146.404 86.2167H147.924V88.8372H146.404V86.2167ZM176.802 86.2167H178.322V88.8372H176.776L176.802 86.2167ZM166.949 86.2167H168.469V88.8372H166.949V86.2167ZM-38.4512 86.2167H-36.905V88.8372H-38.4512V86.2167Z" fill="#D90000"/>
<path fill-rule="evenodd" clip-rule="evenodd" d="M-17.4866 41.3002H-15.9405V43.947H-17.4866V41.3002ZM23.2632 41.3002H24.8093V43.947H23.2632V41.3002ZM-48.75 41.3002H-47.2301V43.947H-48.75V41.3002ZM-28.0737 41.3002H-26.5276V43.947H-28.0737V41.3002ZM-7.52849 41.3002H-6.00856V43.947H-7.52849V41.3002ZM2.63931 41.3002H4.15924V43.947H2.63931V41.3002ZM12.9905 41.3002H14.5629V43.947H12.9905V41.3002ZM33.431 41.3002H34.9771V43.947H33.431V41.3002ZM85.0037 41.3002H86.5237V43.947H85.0037V41.3002ZM43.8084 41.3002H45.3545V43.947H43.8084V41.3002ZM53.9762 41.3002H55.5223V43.947H53.9762V41.3002ZM64.2488 41.3002H65.7688V43.947H64.2488V41.3002ZM74.5214 41.3002H76.0414V43.947H74.5214V41.3002ZM156.545 41.3002H158.118V43.947H156.545V41.3002ZM94.9619 41.3002H96.4818V43.947H94.9357L94.9619 41.3002ZM105.313 41.3002H106.859V43.947H105.313V41.3002ZM115.795 41.3002H117.342V43.947H115.795V41.3002ZM125.649 41.3002H127.195V43.947H125.649V41.3002ZM136.131 41.3002H137.677V43.947H136.105L136.131 41.3002ZM146.404 41.3002H147.924V43.947H146.404V41.3002ZM176.802 41.3002H178.322V43.947H176.776L176.802 41.3002ZM166.949 41.3002H168.469V43.947H166.949V41.3002ZM-38.4512 41.3002H-36.905V43.947H-38.4512V41.3002Z" fill="#239E3F"/>
<path fill-rule="evenodd" clip-rule="evenodd" d="M71.0087 50.1576C73.1837 52.7782 79.7876 67.3223 67.0254 76.8612C61.0243 81.3685 64.7455 81.5782 64.929 82.3644C74.5726 77.2281 77.7173 70.3098 77.6387 64.0728C77.5601 57.8621 74.2844 52.3851 71.0349 50.1576H71.0087Z" fill="#DA0000"/>
<path fill-rule="evenodd" clip-rule="evenodd" d="M72.3194 49.4763C74.6673 50.9143 76.6668 52.8555 78.1737 55.1599C79.6806 57.4642 80.6573 60.0743 81.0333 62.8018C81.4093 65.5293 81.1754 68.3063 80.3482 70.9324C79.5211 73.5586 78.1214 75.9684 76.2502 77.9881C83.1685 76.4682 91.9736 56.0539 72.267 49.4763H72.3194ZM57.6704 49.4763C55.3225 50.9143 53.3229 52.8555 51.8161 55.1599C50.3092 57.4642 49.3325 60.0743 48.9565 62.8018C48.5804 65.5293 48.8144 68.3063 49.6415 70.9324C50.4687 73.5586 51.8683 75.9684 53.7395 77.9881C46.795 76.4682 37.9899 56.0539 57.6704 49.4763Z" fill="#DA0000"/>
<path fill-rule="evenodd" clip-rule="evenodd" d="M58.9547 50.1576C56.8058 52.7782 50.1758 67.3223 62.9379 76.8612C68.939 81.3685 65.2178 81.5782 65.0344 82.3644C55.4169 77.2281 52.246 70.3098 52.3247 64.0728C52.4033 57.8621 55.7052 52.3851 58.9547 50.1576Z" fill="#DA0000"/>
<path fill-rule="evenodd" clip-rule="evenodd" d="M77.2195 81.0279C73.0727 81.1881 68.9456 80.3806 65.1649 78.6694C65.7415 79.7962 66.2132 80.5038 66.8159 81.6568C70.1702 81.9451 74.8086 82.3382 77.2195 81.0279ZM53.1104 81.0279C56.884 81.0803 61.6534 80.5038 65.1649 78.6694C64.5884 79.7962 64.1167 80.5038 63.514 81.6568C60.1597 81.9451 55.5213 82.3382 53.1104 81.0279ZM60.0286 45.8075C60.8148 47.8253 62.8064 48.1398 64.9553 46.9343C66.5276 47.8777 68.9386 47.9302 69.7771 45.8861C70.4061 50.9176 65.1125 49.7383 64.9291 48.7687C62.9637 50.6555 59.2949 49.5549 60.0286 45.8075Z" fill="#DA0000"/>
<path fill-rule="evenodd" clip-rule="evenodd" d="M65.0864 84.1988L67.078 81.9189L67.3401 51.4155L64.9816 49.3191L62.623 51.3107L63.0947 82.0238L65.0864 84.1988Z" fill="#DA0000"/>
</svg>
