<svg width="9" height="17" viewBox="0 0 9 17" fill="none" xmlns="http://www.w3.org/2000/svg">
<path fill-rule="evenodd" clip-rule="evenodd" d="M0.287363 9.05428H2.24028V16.7258C2.24028 16.8774 2.36909 17 2.52765 17H5.839C5.99785 17 6.12637 16.8774 6.12637 16.7258V9.09041H8.37139C8.51759 9.09041 8.64029 8.98573 8.6571 8.84754L8.99806 6.02314C9.00733 5.94548 8.98154 5.8676 8.92708 5.8092C8.87263 5.75107 8.79432 5.71762 8.71264 5.71762H6.12637V3.94715C6.12637 3.4135 6.42781 3.14281 7.02158 3.14281H8.71264C8.87119 3.14281 9 3.02017 9 2.86861V0.276319C9 0.124758 8.87119 0.002125 8.71264 0.002125H6.38234C6.36574 0.00137097 6.32932 0 6.27565 0C5.87133 0 4.46591 0.0757459 3.35576 1.05016C2.12577 2.13007 2.29668 3.42317 2.33763 3.64725V5.71762H0.287363C0.128523 5.71762 0 5.84025 0 5.99181V8.78009C0 8.93137 0.128523 9.05428 0.287363 9.05428Z" fill="white"/>
</svg>
