<svg width="80" height="80" viewBox="0 0 80 80" fill="none" xmlns="http://www.w3.org/2000/svg">
<rect width="80" height="80" fill="#00A4E8"/>
<mask id="mask0" mask-type="alpha" maskUnits="userSpaceOnUse" x="0" y="0" width="80" height="80">
<rect width="80" height="80" fill="white"/>
</mask>
<g mask="url(#mask0)">
</g>
<path d="M41.3945 19.0059C41.125 19.498 40.6562 20.3359 39.9883 21.5195C39.5898 22.2344 39.1973 23.2012 38.8105 24.4199L38.6348 24.2969C38.4004 23.3828 38.1543 22.6855 37.8965 22.2051C37.2988 21.0801 36.0918 20.5176 34.2754 20.5176C33.7363 20.5176 33.1328 20.541 32.4648 20.5879V39.6426L34.5391 41.5586H26.5059L28.9668 39.502V22.0117C28.5918 22 28.2109 21.9941 27.8242 21.9941C26.5586 21.9941 25.668 22.2285 25.1523 22.6973C24.6367 23.1543 24.332 23.9922 24.2383 25.2109H23.7812C23.875 24.168 24.0684 23.4062 24.3613 22.9258C24.9121 22 26.0312 21.5371 27.7188 21.5371L28.8086 21.5547C28.8203 21.5547 28.873 21.5547 28.9668 21.5547V20.6934C28.3691 20.623 27.8008 20.5879 27.2617 20.5879C26.2188 20.5879 25.416 20.7051 24.8535 20.9395C24.3027 21.1621 23.8691 21.5488 23.5527 22.0996C23.1543 22.791 22.9316 23.6348 22.8848 24.6309H22.6738C22.1465 22.9551 21.332 21.0801 20.2305 19.0059H41.3945ZM42.502 20.1133C42.0215 20.7227 41.5996 21.3906 41.2363 22.1172C40.8848 22.832 40.4336 23.9336 39.8828 25.4219L39.4961 25.0879C40.4805 22.3691 41.3652 20.5938 42.1504 19.7617L42.502 20.1133ZM37.8086 22.8555C36.9062 22.2695 35.8516 21.9766 34.6445 21.9766C34.375 21.9766 34.0938 21.9941 33.8008 22.0293L33.8711 39.6953L36.666 43H27.6836L27.2793 42.5254H35.6992L33.3438 39.8359V21.5195C33.7656 21.5078 34.082 21.502 34.293 21.502C35.4297 21.502 36.2324 21.5957 36.7012 21.7832C37.1816 21.959 37.5508 22.3164 37.8086 22.8555ZM60.168 19.5508C58.9844 21.6133 57.9531 23.6992 57.0742 25.8086L56.8457 25.6855C56.6348 24.3379 56.2363 23.2012 55.6504 22.2754C55.1934 21.5723 54.5723 20.998 53.7871 20.5527C53.0137 20.1074 52.2285 19.8848 51.4316 19.8848C50.3535 19.8848 49.3516 20.2715 48.4258 21.0449C46.668 22.5098 45.7891 25.4395 45.7891 29.834C45.7891 32.9863 46.2754 35.5234 47.248 37.4453C47.7285 38.3945 48.3906 39.1621 49.2344 39.748C50.1719 40.3926 51.2266 40.7148 52.3984 40.7148C54.0039 40.7148 55.293 40.1641 56.2656 39.0625C57.2383 37.9609 57.8184 36.3965 58.0059 34.3691C58.0527 33.877 58.252 33.6309 58.6035 33.6309C59.0605 33.6309 59.2891 34.0117 59.2891 34.7734C59.2891 35.6992 59.0898 36.7246 58.6914 37.8496C58.1992 39.2676 57.3555 40.3398 56.1602 41.0664C54.9531 41.8047 53.4883 42.1738 51.7656 42.1738C49.8555 42.1738 48.1445 41.7227 46.6328 40.8203C44.9102 39.8008 43.627 38.1777 42.7832 35.9512C42.1387 34.2754 41.8164 32.459 41.8164 30.502C41.8164 26.4473 43.0762 23.2012 45.5957 20.7637C47.2129 19.2051 49.2402 18.4258 51.6777 18.4258C52.4512 18.4258 53.1074 18.4902 53.6465 18.6191C54.1973 18.7363 54.9941 18.9941 56.0371 19.3926C56.916 19.7324 57.6426 19.9023 58.2168 19.9023C58.8262 19.9023 59.3828 19.7324 59.8867 19.3926L60.168 19.5508ZM55.0703 22.5918C54.4375 22.0879 53.916 21.748 53.5059 21.5723C53.1074 21.3965 52.6445 21.3086 52.1172 21.3086C49.0352 21.3086 47.4941 24.168 47.4941 29.8867C47.4941 32.582 47.8457 34.8086 48.5488 36.5664C49.252 38.3242 50.2422 39.4609 51.5195 39.9766V40.1523C50.8398 40.0117 50.2422 39.6895 49.7266 39.1855C48.6953 38.2012 47.9629 36.7715 47.5293 34.8965C47.1543 33.3145 46.9668 31.6387 46.9668 29.8691C46.9668 26.9863 47.4297 24.6895 48.3555 22.9785C48.7188 22.3223 49.2227 21.8066 49.8672 21.4316C50.5117 21.0566 51.2207 20.8691 51.9941 20.8691C52.627 20.8691 53.1602 20.9746 53.5938 21.1855C54.0273 21.3965 54.5195 21.7891 55.0703 22.3633V22.5918ZM60.8008 34.668C60.6602 36.7422 60.2617 38.3887 59.6055 39.6074C58.9023 40.9199 57.8828 41.9219 56.5469 42.6133C55.293 43.2578 53.8926 43.5801 52.3457 43.5801C50.3887 43.5801 48.5664 42.9766 46.8789 41.7695V41.6289C48.3672 42.6133 50.1484 43.1055 52.2227 43.1055C54.3086 43.1055 56.0605 42.5195 57.4785 41.3477C58.4043 40.5742 59.0664 39.6953 59.4648 38.7109C59.875 37.7266 60.1504 36.3027 60.291 34.4395L60.8008 34.668ZM61.4512 20.3945C60.0332 22.8086 58.9492 24.9062 58.1992 26.6875L57.7246 26.459C58.5098 24.7832 59.5586 22.7852 60.8711 20.4648L61.0469 20.1484L61.4512 20.3945Z" fill="white"/>
<path d="M21.186 52.2295C20.6929 53.0889 20.2632 53.958 19.897 54.8369L19.8018 54.7856C19.7139 54.2241 19.5479 53.7505 19.3037 53.3647C19.1133 53.0718 18.8545 52.8325 18.5273 52.647C18.2051 52.4614 17.8779 52.3687 17.5459 52.3687C17.0967 52.3687 16.6792 52.5298 16.2935 52.8521C15.561 53.4624 15.1948 54.6831 15.1948 56.5142C15.1948 57.8276 15.3975 58.8848 15.8027 59.6855C16.0029 60.0811 16.2788 60.4009 16.6304 60.645C17.021 60.9136 17.4604 61.0479 17.9487 61.0479C18.6177 61.0479 19.1548 60.8184 19.5601 60.3594C19.9653 59.9004 20.207 59.2485 20.2852 58.4038C20.3047 58.1987 20.3877 58.0962 20.5342 58.0962C20.7246 58.0962 20.8198 58.2549 20.8198 58.5723C20.8198 58.958 20.7368 59.3853 20.5708 59.854C20.3657 60.4448 20.0142 60.8916 19.5161 61.1943C19.0132 61.502 18.4028 61.6558 17.6851 61.6558C16.8892 61.6558 16.1763 61.4678 15.5464 61.0918C14.8286 60.667 14.2939 59.9907 13.9424 59.063C13.6738 58.3647 13.5396 57.6079 13.5396 56.7925C13.5396 55.103 14.0645 53.7505 15.1143 52.7349C15.7881 52.0854 16.6328 51.7607 17.6484 51.7607C17.9707 51.7607 18.2441 51.7876 18.4688 51.8413C18.6982 51.8901 19.0303 51.9976 19.4648 52.1636C19.8311 52.3052 20.1338 52.376 20.373 52.376C20.627 52.376 20.8589 52.3052 21.0688 52.1636L21.186 52.2295ZM19.062 53.4966C18.7983 53.2866 18.5811 53.145 18.4102 53.0718C18.2441 52.9985 18.0513 52.9619 17.8315 52.9619C16.5474 52.9619 15.9053 54.1533 15.9053 56.5361C15.9053 57.6592 16.0518 58.5869 16.3447 59.3193C16.6377 60.0518 17.0503 60.5254 17.5825 60.7402V60.8135C17.2993 60.7549 17.0503 60.6206 16.8354 60.4106C16.4058 60.0005 16.1006 59.4048 15.9199 58.6235C15.7637 57.9644 15.6855 57.2661 15.6855 56.5288C15.6855 55.3276 15.8784 54.3706 16.2642 53.6577C16.4155 53.3843 16.6255 53.1694 16.894 53.0132C17.1626 52.8569 17.458 52.7788 17.7803 52.7788C18.0439 52.7788 18.2661 52.8228 18.4468 52.9106C18.6274 52.9985 18.8325 53.1621 19.062 53.4014V53.4966ZM21.4497 58.5283C21.3911 59.3926 21.2251 60.0786 20.9517 60.5864C20.6587 61.1333 20.2339 61.5508 19.6772 61.8389C19.1548 62.1074 18.5713 62.2417 17.9268 62.2417C17.1113 62.2417 16.3521 61.9902 15.6489 61.4873V61.4287C16.269 61.8389 17.0112 62.0439 17.8755 62.0439C18.7446 62.0439 19.4746 61.7998 20.0654 61.3115C20.4512 60.9893 20.7271 60.623 20.8931 60.2129C21.064 59.8027 21.1787 59.2095 21.2373 58.4331L21.4497 58.5283ZM21.7207 52.5811C21.1299 53.5869 20.6782 54.4609 20.3657 55.2031L20.168 55.1079C20.4951 54.4097 20.9321 53.5771 21.479 52.6104L21.5522 52.4785L21.7207 52.5811ZM30.1582 52.0024C29.7822 52.4565 29.5186 52.8154 29.3672 53.0791C29.2158 53.3428 29.0449 53.731 28.8545 54.2437C28.8203 54.1606 28.7837 54.0776 28.7446 53.9946C28.481 53.4136 28.1953 53.0376 27.8877 52.8667C27.585 52.6909 27.0552 52.603 26.2983 52.603C25.8833 52.603 25.4194 52.6152 24.9067 52.6396V56.0088H25.3755V53.0278C25.7466 52.9937 26.1104 52.9766 26.4668 52.9766C27.0674 52.9766 27.5142 53.0425 27.8071 53.1743C28.1001 53.3062 28.3613 53.5625 28.5908 53.9434C28.5176 53.8848 28.4688 53.8481 28.4443 53.8335C28.0488 53.521 27.7632 53.3354 27.5874 53.2769C27.4116 53.2183 27.0649 53.189 26.5474 53.189C26.3911 53.189 26.0615 53.2012 25.5586 53.2256V56.0088H26.9062L27.8511 54.7124V57.8691L26.9062 56.646H24.9067V60.7549H25.3755V56.9902H26.9648L27.1553 57.1807H25.5586V60.7549C26.7354 60.7549 27.4946 60.667 27.8364 60.4912C28.0952 60.3643 28.2686 60.2471 28.3564 60.1396C28.4492 60.0322 28.7129 59.6123 29.1475 58.8799C29.2695 59.4072 29.4258 59.8369 29.6162 60.1689C29.8115 60.501 30.124 60.877 30.5537 61.2969H22.3433L23.4565 60.4473V57.1807C23.0464 57.2246 22.6753 57.3516 22.3433 57.5615L22.2407 57.4077C22.519 57.1929 22.9243 57.0537 23.4565 56.9902V56.646C23.3735 56.6362 23.3149 56.6313 23.2808 56.6313C23.0562 56.6313 22.8193 56.6826 22.5703 56.7852C22.3213 56.8828 22.104 57.0146 21.9185 57.1807C22.1138 56.4043 22.6265 56.0137 23.4565 56.0088V52.8813L22.3433 52.0024H30.1582ZM30.5098 52.5151C30.0898 53.0815 29.8091 53.4795 29.6675 53.709C29.5308 53.9385 29.3965 54.2339 29.2646 54.5952L29.1401 54.4414C29.4673 53.6797 29.8896 52.9863 30.4072 52.3613L30.5098 52.5151ZM28.3564 54.9541V58.1914L28.1733 58.0962V54.8589L28.3564 54.9541ZM31.3887 61.3408L31.0078 62H23.0098L22.8926 61.8022H30.9126L31.1616 61.3408C30.4438 60.6865 29.9482 59.9932 29.6748 59.2607L29.9092 59.3486C30.0752 59.7393 30.251 60.0615 30.4365 60.3154C30.627 60.5645 30.9443 60.9062 31.3887 61.3408ZM38.4639 61.3994H37.2261L33.769 54.6904V58.6675L33.7617 59.0483C33.7617 60.103 34.0132 60.7988 34.5161 61.1357L34.5747 61.187C34.2183 61.0698 33.9595 60.8428 33.7983 60.5059C33.6421 60.1641 33.564 59.6733 33.564 59.0337L33.5713 58.3379V54.3315L33.1758 53.5625V57.7812C33.1758 58.5967 33.1929 59.1753 33.2271 59.5171C33.2612 59.8589 33.3296 60.1396 33.4321 60.3594C33.6616 60.8281 34.0767 61.1479 34.6772 61.3188L35.3145 62H31.3447L31.2275 61.8022H34.897L34.5161 61.3994H31.103C31.5718 61.2334 31.9038 61.0332 32.0991 60.7988C32.2749 60.5889 32.3994 60.3252 32.4727 60.0078C32.5459 59.6855 32.5825 59.2412 32.5825 58.6748V52.8154L31.6084 52.0024H35.3145L34.2744 52.6982L37.8193 59.6123V58.7334L34.7798 52.8154L35.8052 52.1196L35.9443 52.2588L35.0361 52.874L37.8193 58.3379V54.9175C37.8193 54.146 37.812 53.6846 37.7974 53.5332C37.7876 53.3818 37.7485 53.2158 37.6802 53.0352C37.519 52.6201 37.1528 52.2759 36.5815 52.0024H39.9067C39.4722 52.2271 39.1743 52.415 39.0132 52.5664C38.8569 52.7178 38.7324 52.9277 38.6396 53.1963C38.5176 53.5918 38.459 54.1753 38.4639 54.9468V61.3994ZM40.1631 52.5444L40.0312 52.7642C39.6504 52.8569 39.394 53.0181 39.2622 53.2476C39.1304 53.4771 39.0645 53.8774 39.0645 54.4487V62H37.4897L37.3945 61.8022H38.8667V54.522C38.8667 53.8335 38.9546 53.3525 39.1304 53.0791C39.311 52.8057 39.6553 52.6274 40.1631 52.5444ZM48.7251 52.0024C48.6128 52.2075 48.4175 52.5566 48.1392 53.0498C47.9731 53.3477 47.8096 53.7505 47.6484 54.2583L47.5752 54.207C47.4775 53.8262 47.375 53.5356 47.2676 53.3354C47.0186 52.8667 46.5156 52.6323 45.7588 52.6323C45.5342 52.6323 45.2827 52.6421 45.0044 52.6616V60.6011L45.8687 61.3994H42.5215L43.5469 60.5425V53.2549C43.3906 53.25 43.2319 53.2476 43.0708 53.2476C42.5435 53.2476 42.1724 53.3452 41.9575 53.5405C41.7427 53.731 41.6157 54.0801 41.5767 54.5879H41.3862C41.4253 54.1533 41.5059 53.8359 41.6279 53.6357C41.8574 53.25 42.3237 53.0571 43.0269 53.0571L43.481 53.0645C43.4858 53.0645 43.5078 53.0645 43.5469 53.0645V52.7056C43.2979 52.6763 43.061 52.6616 42.8364 52.6616C42.4019 52.6616 42.0674 52.7104 41.833 52.8081C41.6035 52.9009 41.4229 53.062 41.291 53.2915C41.125 53.5796 41.0322 53.9312 41.0127 54.3462H40.9248C40.7051 53.6479 40.3657 52.8667 39.9067 52.0024H48.7251ZM49.1865 52.4639C48.9863 52.7178 48.8105 52.9961 48.6592 53.2988C48.5127 53.5967 48.3247 54.0557 48.0952 54.6758L47.9341 54.5366C48.3442 53.4038 48.7129 52.6641 49.04 52.3174L49.1865 52.4639ZM47.231 53.6064C46.855 53.3623 46.4155 53.2402 45.9126 53.2402C45.8003 53.2402 45.6831 53.2476 45.561 53.2622L45.5903 60.623L46.7549 62H43.0122L42.8438 61.8022H46.3521L45.3706 60.6816V53.0498C45.5464 53.0449 45.6782 53.0425 45.7661 53.0425C46.2397 53.0425 46.5742 53.0815 46.7695 53.1597C46.9697 53.2329 47.1235 53.3818 47.231 53.6064ZM57.1846 52.0024C56.8086 52.4565 56.5449 52.8154 56.3936 53.0791C56.2422 53.3428 56.0713 53.731 55.8809 54.2437C55.8467 54.1606 55.8101 54.0776 55.771 53.9946C55.5073 53.4136 55.2217 53.0376 54.9141 52.8667C54.6113 52.6909 54.0815 52.603 53.3247 52.603C52.9097 52.603 52.4458 52.6152 51.9331 52.6396V56.0088H52.4019V53.0278C52.7729 52.9937 53.1367 52.9766 53.4932 52.9766C54.0938 52.9766 54.5405 53.0425 54.8335 53.1743C55.1265 53.3062 55.3877 53.5625 55.6172 53.9434C55.5439 53.8848 55.4951 53.8481 55.4707 53.8335C55.0752 53.521 54.7896 53.3354 54.6138 53.2769C54.438 53.2183 54.0913 53.189 53.5737 53.189C53.4175 53.189 53.0879 53.2012 52.585 53.2256V56.0088H53.9326L54.8774 54.7124V57.8691L53.9326 56.646H51.9331V60.7549H52.4019V56.9902H53.9912L54.1816 57.1807H52.585V60.7549C53.7617 60.7549 54.521 60.667 54.8628 60.4912C55.1216 60.3643 55.2949 60.2471 55.3828 60.1396C55.4756 60.0322 55.7393 59.6123 56.1738 58.8799C56.2959 59.4072 56.4521 59.8369 56.6426 60.1689C56.8379 60.501 57.1504 60.877 57.5801 61.2969H49.3696L50.4829 60.4473V57.1807C50.0728 57.2246 49.7017 57.3516 49.3696 57.5615L49.2671 57.4077C49.5454 57.1929 49.9507 57.0537 50.4829 56.9902V56.646C50.3999 56.6362 50.3413 56.6313 50.3071 56.6313C50.0825 56.6313 49.8457 56.6826 49.5967 56.7852C49.3477 56.8828 49.1304 57.0146 48.9448 57.1807C49.1401 56.4043 49.6528 56.0137 50.4829 56.0088V52.8813L49.3696 52.0024H57.1846ZM57.5361 52.5151C57.1162 53.0815 56.8354 53.4795 56.6938 53.709C56.5571 53.9385 56.4229 54.2339 56.291 54.5952L56.1665 54.4414C56.4937 53.6797 56.916 52.9863 57.4336 52.3613L57.5361 52.5151ZM55.3828 54.9541V58.1914L55.1997 58.0962V54.8589L55.3828 54.9541ZM58.415 61.3408L58.0342 62H50.0361L49.9189 61.8022H57.939L58.188 61.3408C57.4702 60.6865 56.9746 59.9932 56.7012 59.2607L56.9355 59.3486C57.1016 59.7393 57.2773 60.0615 57.4629 60.3154C57.6533 60.5645 57.9707 60.9062 58.415 61.3408ZM58.9204 52.8813C60.0776 52.2124 61.3032 51.8779 62.5972 51.8779C63.1392 51.8779 63.6567 51.9463 64.1499 52.083C64.6431 52.2197 65.0459 52.4077 65.3584 52.647C65.9346 53.0815 66.2227 53.6211 66.2227 54.2656C66.2227 54.8271 66.0029 55.3276 65.5635 55.7671C65.1289 56.2065 64.5283 56.5239 63.7617 56.7192C64.0938 57.6372 64.5503 58.5405 65.1313 59.4292C65.7173 60.313 66.2983 60.9868 66.8745 61.4507C66.3911 61.6167 65.9932 61.7778 65.6807 61.9341C65.373 62.0854 64.9849 62.3125 64.5161 62.6152C64.2231 60.7207 63.7642 59.0166 63.1392 57.5029C62.8218 57.6592 62.3506 57.7861 61.7256 57.8838V60.623L63.0146 62H59.228L59.1108 61.8022H62.5972L61.5352 60.6743V57.7227C62.1797 57.6543 62.6973 57.5371 63.0879 57.3711C63.0586 57.3076 63.0269 57.2271 62.9927 57.1294C62.9683 57.0659 62.9463 57.0098 62.9268 56.9609C62.6143 57.0488 62.0161 57.1489 61.1323 57.2612V60.5278L61.9673 61.3994H58.73L59.6821 60.5278V58.0669C59.3599 58.1353 59.0645 58.2158 58.7959 58.3086L58.73 58.1621C58.9497 58.0791 59.2671 57.9863 59.6821 57.8838V57.5029C59.3696 57.5078 58.9839 57.5811 58.5249 57.7227C58.5347 57.6592 58.5835 57.5005 58.6714 57.2466C58.6812 57.2271 58.7153 57.1172 58.7739 56.917L58.7959 56.8511C59.0156 56.8657 59.1841 56.873 59.3013 56.873C59.438 56.873 59.5625 56.8657 59.6748 56.8511V53.2476C59.4453 53.1108 59.1938 52.9888 58.9204 52.8813ZM61.1323 52.6909V56.6387C61.2642 56.6387 61.3984 56.6265 61.5352 56.6021V52.9985C61.8037 52.9253 62.1284 52.8887 62.5093 52.8887C63.0073 52.8887 63.4077 52.9644 63.7104 53.1157C64.0181 53.2622 64.2622 53.499 64.4429 53.8262C64.0767 53.5283 63.7544 53.3257 63.4761 53.2183C63.2026 53.1108 62.8657 53.0571 62.4653 53.0571C62.1968 53.0571 61.9502 53.0864 61.7256 53.145V56.6021C62.4775 56.4653 63.0732 56.2847 63.5127 56.0601C63.9082 55.855 64.2036 55.5693 64.3989 55.2031C64.5649 54.9004 64.6479 54.5928 64.6479 54.2803C64.6479 53.6699 64.3965 53.189 63.8936 52.8374C63.4834 52.5493 62.9927 52.4053 62.4214 52.4053C61.9136 52.4053 61.4839 52.5005 61.1323 52.6909ZM64.6699 57.0854C64.8262 57.5981 65.0801 58.1597 65.4316 58.77C65.7881 59.3755 66.1641 59.8979 66.5596 60.3374C67.0039 60.8257 67.5361 61.2651 68.1562 61.6558C67.043 61.9487 65.9712 62.4175 64.9409 63.062L64.7944 62.9448C65.2388 62.6519 65.7197 62.3882 66.2373 62.1538C66.7598 61.9194 67.2725 61.7339 67.7754 61.5972C67.248 61.2456 66.7939 60.8599 66.4131 60.4399C66.0371 60.02 65.6538 59.4731 65.2632 58.7993C64.9702 58.2817 64.687 57.6738 64.4136 56.9756C64.9116 56.79 65.2827 56.6118 65.5269 56.4409C66.2788 55.9136 66.6548 55.2275 66.6548 54.3828C66.6548 54.1094 66.6133 53.8604 66.5303 53.6357C66.4473 53.4111 66.2959 53.1377 66.0762 52.8154C66.3105 53.0303 66.4912 53.2891 66.6182 53.5918C66.75 53.8896 66.8159 54.2021 66.8159 54.5293C66.8159 55.0762 66.6328 55.5693 66.2666 56.0088C65.9004 56.4434 65.3682 56.8022 64.6699 57.0854Z" fill="white"/>
</svg>
