<svg width="154" height="154" viewBox="0 0 154 154" fill="none" xmlns="http://www.w3.org/2000/svg">
<rect width="154" height="154" fill="white"/>
<mask id="mask0" mask-type="alpha" maskUnits="userSpaceOnUse" x="0" y="0" width="154" height="154">
<rect width="154" height="154" fill="white"/>
</mask>
<g mask="url(#mask0)">
</g>
<path d="M77.3553 51.4801C76.9855 52.1553 76.3424 53.3049 75.4259 54.9288C74.8793 55.9096 74.3406 57.236 73.8101 58.9082L73.5689 58.7393C73.2473 57.4852 72.9097 56.5286 72.556 55.8694C71.736 54.3259 70.0799 53.5541 67.5878 53.5541C66.8482 53.5541 66.0202 53.5863 65.1038 53.6506V79.7936L67.9496 82.4224H56.928L60.3044 79.6007V55.6041C59.7899 55.588 59.2674 55.58 58.7368 55.58C57.0004 55.58 55.7785 55.9015 55.071 56.5447C54.3636 57.1717 53.9455 58.3213 53.8169 59.9934H53.1899C53.3185 58.5625 53.5838 57.5174 53.9857 56.8582C54.7414 55.588 56.2769 54.9529 58.5921 54.9529L60.0874 54.9771C60.1035 54.9771 60.1758 54.9771 60.3044 54.9771V53.7953C59.4845 53.6988 58.7047 53.6506 57.9651 53.6506C56.5341 53.6506 55.4328 53.8114 54.661 54.133C53.9054 54.4384 53.3105 54.969 52.8764 55.7247C52.3297 56.6733 52.0242 57.8309 51.9599 59.1976H51.6705C50.947 56.8984 49.8295 54.3259 48.3182 51.4801H77.3553ZM78.8747 52.9994C78.2155 53.8355 77.6367 54.752 77.1382 55.7488C76.6559 56.7296 76.0369 58.2409 75.2812 60.2828L74.7506 59.8246C76.1012 56.0945 77.3151 53.6587 78.3923 52.5171L78.8747 52.9994ZM72.4354 56.7617C71.1974 55.9578 69.7503 55.5559 68.0943 55.5559C67.7245 55.5559 67.3386 55.58 66.9367 55.6282L67.0331 79.866L70.8678 84.4H58.5439L57.9892 83.7489H69.5413L66.3096 80.0589V54.9288C66.8884 54.9127 67.3225 54.9047 67.612 54.9047C69.1715 54.9047 70.2729 55.0333 70.916 55.2906C71.5752 55.5318 72.0817 56.0221 72.4354 56.7617ZM103.112 52.2277C101.489 55.0574 100.074 57.9194 98.8678 60.8134L98.5543 60.6446C98.2649 58.7956 97.7182 57.236 96.9143 55.9659C96.2873 55.0012 95.4351 54.2133 94.3579 53.6024C93.2968 52.9914 92.2195 52.6859 91.1262 52.6859C89.647 52.6859 88.2723 53.2165 87.0022 54.2777C84.5905 56.2874 83.3846 60.307 83.3846 66.3363C83.3846 70.6613 84.0518 74.1422 85.3863 76.779C86.0455 78.0813 86.9539 79.1344 88.1116 79.9383C89.3978 80.8226 90.8448 81.2648 92.4527 81.2648C94.6554 81.2648 96.424 80.5091 97.7584 78.9978C99.0929 77.4864 99.8888 75.34 100.146 72.5585C100.21 71.8832 100.484 71.5456 100.966 71.5456C101.593 71.5456 101.907 72.0681 101.907 73.1132C101.907 74.3834 101.633 75.7902 101.087 77.3337C100.411 79.2791 99.2537 80.7503 97.6137 81.7471C95.9577 82.7601 93.9479 83.2665 91.5844 83.2665C88.9637 83.2665 86.6163 82.6475 84.5422 81.4095C82.1787 80.0107 80.4182 77.7839 79.2606 74.729C78.3763 72.4299 77.9341 69.9378 77.9341 67.2527C77.9341 61.6897 79.6625 57.236 83.1193 53.8918C85.3381 51.7534 88.1196 50.6842 91.4639 50.6842C92.525 50.6842 93.4254 50.7726 94.165 50.9495C94.9206 51.1103 96.014 51.464 97.4449 52.0106C98.6508 52.4769 99.6476 52.71 100.435 52.71C101.272 52.71 102.035 52.4769 102.727 52.0106L103.112 52.2277ZM96.1185 56.4C95.2503 55.7086 94.5348 55.2423 93.972 55.0012C93.4254 54.76 92.7903 54.6394 92.0668 54.6394C87.8382 54.6394 85.724 58.5625 85.724 66.4086C85.724 70.1066 86.2063 73.1614 87.171 75.5731C88.1357 77.9849 89.4943 79.5444 91.2468 80.2519V80.493C90.3143 80.3001 89.4943 79.858 88.7868 79.1666C87.372 77.816 86.3671 75.8545 85.7722 73.282C85.2577 71.1115 85.0004 68.8123 85.0004 66.3845C85.0004 62.4293 85.6355 59.278 86.9057 56.9305C87.4041 56.0302 88.0955 55.3227 88.9798 54.8082C89.8641 54.2937 90.8368 54.0365 91.898 54.0365C92.7662 54.0365 93.4977 54.1812 94.0926 54.4706C94.6875 54.76 95.3628 55.2986 96.1185 56.0864V56.4ZM103.981 72.9685C103.788 75.8143 103.241 78.0733 102.341 79.7454C101.376 81.5462 99.9772 82.9208 98.1443 83.8694C96.424 84.7537 94.5026 85.1959 92.3803 85.1959C89.6953 85.1959 87.1951 84.3679 84.8799 82.7118V82.5189C86.9218 83.8694 89.3657 84.5447 92.2115 84.5447C95.0734 84.5447 97.4771 83.7408 99.4225 82.133C100.693 81.0719 101.601 79.866 102.148 78.5154C102.711 77.1649 103.088 75.2114 103.281 72.655L103.981 72.9685ZM104.873 53.3853C102.928 56.6974 101.44 59.5754 100.411 62.0193L99.7602 61.7058C100.837 59.4066 102.276 56.6653 104.077 53.4818L104.318 53.0477L104.873 53.3853Z" fill="#07172E"/>
<path d="M50.5012 96.8949C49.8246 98.074 49.2351 99.2664 48.7326 100.472L48.602 100.402C48.4814 99.6315 48.2537 98.9817 47.9187 98.4525C47.6574 98.0505 47.3024 97.7223 46.8535 97.4677C46.4114 97.2131 45.9625 97.0858 45.507 97.0858C44.8906 97.0858 44.3179 97.3069 43.7886 97.7491C42.7837 98.5865 42.2813 100.261 42.2813 102.773C42.2813 104.576 42.5593 106.026 43.1154 107.125C43.39 107.667 43.7685 108.106 44.2509 108.441C44.7868 108.809 45.3897 108.994 46.0597 108.994C46.9775 108.994 47.7144 108.679 48.2704 108.049C48.8264 107.419 49.158 106.525 49.2652 105.366C49.292 105.085 49.4059 104.944 49.6069 104.944C49.8682 104.944 49.9988 105.162 49.9988 105.597C49.9988 106.126 49.8849 106.713 49.6571 107.356C49.3758 108.166 48.8934 108.779 48.2101 109.195C47.5201 109.617 46.6827 109.828 45.6979 109.828C44.6059 109.828 43.6278 109.57 42.7636 109.054C41.7789 108.471 41.0453 107.543 40.563 106.27C40.1945 105.312 40.0103 104.274 40.0103 103.155C40.0103 100.837 40.7304 98.9817 42.1708 97.5883C43.0953 96.6973 44.2542 96.2518 45.6477 96.2518C46.0898 96.2518 46.465 96.2886 46.7731 96.3623C47.088 96.4293 47.5435 96.5767 48.1398 96.8045C48.6422 96.9988 49.0576 97.0959 49.3858 97.0959C49.7342 97.0959 50.0524 96.9988 50.3405 96.8045L50.5012 96.8949ZM47.5871 98.6334C47.2253 98.3453 46.9272 98.151 46.6927 98.0505C46.465 97.95 46.2003 97.8998 45.8989 97.8998C44.137 97.8998 43.256 99.5344 43.256 102.804C43.256 104.344 43.457 105.617 43.859 106.622C44.2609 107.627 44.827 108.277 45.5572 108.572V108.672C45.1687 108.592 44.827 108.408 44.5322 108.119C43.9427 107.557 43.524 106.739 43.2761 105.668C43.0618 104.763 42.9546 103.805 42.9546 102.794C42.9546 101.146 43.2192 99.8325 43.7484 98.8544C43.9561 98.4793 44.2442 98.1845 44.6126 97.9701C44.9811 97.7558 45.3864 97.6486 45.8285 97.6486C46.1903 97.6486 46.4951 97.7089 46.743 97.8295C46.9909 97.95 47.2722 98.1745 47.5871 98.5027V98.6334ZM50.863 105.537C50.7826 106.723 50.5548 107.664 50.1797 108.361C49.7777 109.111 49.1949 109.684 48.4312 110.079C47.7144 110.447 46.9138 110.632 46.0295 110.632C44.9107 110.632 43.869 110.287 42.9043 109.597V109.516C43.7551 110.079 44.7734 110.36 45.9592 110.36C47.1516 110.36 48.1532 110.025 48.9638 109.355C49.493 108.913 49.8715 108.411 50.0993 107.848C50.3338 107.285 50.4912 106.471 50.5716 105.406L50.863 105.537ZM51.2348 97.3773C50.4242 98.7573 49.8045 99.9565 49.3758 100.975L49.1045 100.844C49.5533 99.8861 50.1529 98.7439 50.9032 97.4175L51.0037 97.2366L51.2348 97.3773ZM62.8111 96.5834C62.2952 97.2064 61.9335 97.6988 61.7258 98.0606C61.5181 98.4223 61.2836 98.9549 61.0224 99.6583C60.9755 99.5445 60.9252 99.4306 60.8716 99.3167C60.5099 98.5195 60.118 98.0036 59.6959 97.7692C59.2806 97.528 58.5537 97.4074 57.5153 97.4074C56.9459 97.4074 56.3095 97.4242 55.606 97.4576V102.08H56.2492V97.9902C56.7583 97.9433 57.2574 97.9199 57.7464 97.9199C58.5705 97.9199 59.1834 98.0103 59.5854 98.1912C59.9873 98.3721 60.3457 98.7238 60.6606 99.2463C60.5601 99.1659 60.4931 99.1157 60.4596 99.0956C59.917 98.6669 59.5251 98.4123 59.2839 98.3319C59.0427 98.2515 58.5671 98.2113 57.857 98.2113C57.6426 98.2113 57.1904 98.2281 56.5004 98.2616V102.08H58.3494L59.6457 100.301V104.633L58.3494 102.954H55.606V108.592H56.2492V103.427H58.4298L58.691 103.688H56.5004V108.592C58.1149 108.592 59.1566 108.471 59.6256 108.23C59.9806 108.056 60.2185 107.895 60.339 107.748C60.4663 107.6 60.8281 107.024 61.4243 106.019C61.5918 106.743 61.8062 107.332 62.0674 107.788C62.3354 108.243 62.7642 108.759 63.3537 109.335H52.089L53.6164 108.17V103.688C53.0536 103.748 52.5445 103.922 52.089 104.21L51.9483 103.999C52.3301 103.705 52.8862 103.514 53.6164 103.427V102.954C53.5025 102.941 53.4221 102.934 53.3752 102.934C53.067 102.934 52.7421 103.005 52.4005 103.145C52.0588 103.279 51.7607 103.46 51.5061 103.688C51.7741 102.623 52.4775 102.087 53.6164 102.08V97.7893L52.089 96.5834H62.8111ZM63.2934 97.2868C62.7173 98.0639 62.3321 98.6099 62.1378 98.9248C61.9502 99.2396 61.766 99.6449 61.5851 100.141L61.4143 99.9297C61.8631 98.8846 62.4426 97.9333 63.1527 97.0758L63.2934 97.2868ZM60.339 100.633V105.075L60.0878 104.944V100.502L60.339 100.633ZM64.4993 109.396L63.9767 110.3H53.0034L52.8426 110.029H63.8461L64.1877 109.396C63.203 108.498 62.523 107.547 62.1478 106.542L62.4694 106.662C62.6972 107.198 62.9383 107.64 63.1929 107.989C63.4542 108.33 63.8896 108.799 64.4993 109.396ZM74.2064 109.476H72.5082L67.7651 100.271V105.728L67.7551 106.25C67.7551 107.697 68.1001 108.652 68.7901 109.114L68.8705 109.185C68.3815 109.024 68.0264 108.712 67.8053 108.25C67.5909 107.781 67.4838 107.108 67.4838 106.23L67.4938 105.276V99.7789L66.9512 98.7238V104.512C66.9512 105.631 66.9746 106.425 67.0215 106.893C67.0684 107.362 67.1622 107.748 67.3029 108.049C67.6177 108.692 68.1872 109.131 69.0112 109.366L69.8854 110.3H64.439L64.2782 110.029H69.3126L68.7901 109.476H64.1074C64.7505 109.248 65.206 108.974 65.474 108.652C65.7152 108.364 65.886 108.002 65.9865 107.567C66.087 107.125 66.1372 106.515 66.1372 105.738V97.6988L64.8007 96.5834H69.8854L68.4585 97.538L73.3221 107.024V105.818L69.1519 97.6988L70.5587 96.7442L70.7496 96.9351L69.5036 97.7792L73.3221 105.276V100.583C73.3221 99.5244 73.3121 98.8913 73.292 98.6836C73.2786 98.4759 73.225 98.2482 73.1312 98.0003C72.9101 97.4309 72.4077 96.9586 71.6239 96.5834H76.186C75.5898 96.8916 75.1812 97.1495 74.9601 97.3572C74.7457 97.5648 74.5749 97.8529 74.4476 98.2214C74.2801 98.764 74.1997 99.5646 74.2064 100.623V109.476ZM76.5378 97.327L76.3569 97.6285C75.8343 97.7558 75.4826 97.9768 75.3017 98.2917C75.1209 98.6066 75.0304 99.1559 75.0304 99.9397V110.3H72.8699L72.7393 110.029H74.7591V100.04C74.7591 99.0956 74.8797 98.4357 75.1209 98.0606C75.3687 97.6854 75.841 97.4409 76.5378 97.327ZM88.2848 96.5834C88.1308 96.8648 87.8628 97.3438 87.4809 98.0204C87.2532 98.429 87.0287 98.9817 86.8077 99.6784L86.7072 99.6081C86.5732 99.0856 86.4325 98.687 86.2851 98.4123C85.9435 97.7692 85.2534 97.4476 84.2151 97.4476C83.9069 97.4476 83.5619 97.461 83.18 97.4878V108.381L84.3658 109.476H79.7735L81.1803 108.3V98.3017C80.9659 98.295 80.7482 98.2917 80.5271 98.2917C79.8036 98.2917 79.2945 98.4257 78.9997 98.6937C78.705 98.9549 78.5308 99.4339 78.4772 100.131H78.2159C78.2695 99.5344 78.38 99.099 78.5475 98.8243C78.8624 98.295 79.5022 98.0304 80.4668 98.0304L81.0899 98.0405C81.0966 98.0405 81.1267 98.0405 81.1803 98.0405V97.5481C80.8387 97.5079 80.5137 97.4878 80.2056 97.4878C79.6093 97.4878 79.1504 97.5548 78.8289 97.6888C78.514 97.8161 78.2662 98.0371 78.0853 98.352C77.8575 98.7472 77.7302 99.2296 77.7034 99.799H77.5828C77.2814 98.841 76.8158 97.7692 76.186 96.5834H88.2848ZM88.9179 97.2165C88.6432 97.5648 88.4021 97.9467 88.1944 98.362C87.9934 98.7707 87.7355 99.4004 87.4206 100.251L87.1996 100.06C87.7623 98.5061 88.2681 97.4911 88.7169 97.0155L88.9179 97.2165ZM86.2349 98.7841C85.719 98.4491 85.1161 98.2817 84.4261 98.2817C84.272 98.2817 84.1112 98.2917 83.9437 98.3118L83.9839 108.411L85.5817 110.3H80.4467L80.2156 110.029H85.029L83.6825 108.491V98.0204C83.9236 98.0137 84.1045 98.0103 84.2251 98.0103C84.8749 98.0103 85.3338 98.0639 85.6018 98.1711C85.8765 98.2716 86.0875 98.4759 86.2349 98.7841ZM99.8912 96.5834C99.3754 97.2064 99.0136 97.6988 98.806 98.0606C98.5983 98.4223 98.3638 98.9549 98.1025 99.6583C98.0556 99.5445 98.0054 99.4306 97.9518 99.3167C97.59 98.5195 97.1981 98.0036 96.7761 97.7692C96.3607 97.528 95.6339 97.4074 94.5955 97.4074C94.0261 97.4074 93.3896 97.4242 92.6862 97.4576V102.08H93.3293V97.9902C93.8385 97.9433 94.3376 97.9199 94.8266 97.9199C95.6506 97.9199 96.2636 98.0103 96.6656 98.1912C97.0675 98.3721 97.4259 98.7238 97.7408 99.2463C97.6403 99.1659 97.5733 99.1157 97.5398 99.0956C96.9972 98.6669 96.6053 98.4123 96.3641 98.3319C96.1229 98.2515 95.6473 98.2113 94.9372 98.2113C94.7228 98.2113 94.2706 98.2281 93.5806 98.2616V102.08H95.4295L96.7258 100.301V104.633L95.4295 102.954H92.6862V108.592H93.3293V103.427H95.5099L95.7712 103.688H93.5806V108.592C95.1951 108.592 96.2368 108.471 96.7057 108.23C97.0608 108.056 97.2986 107.895 97.4192 107.748C97.5465 107.6 97.9083 107.024 98.5045 106.019C98.672 106.743 98.8863 107.332 99.1476 107.788C99.4156 108.243 99.8443 108.759 100.434 109.335H89.1691L90.6965 108.17V103.688C90.1338 103.748 89.6247 103.922 89.1691 104.21L89.0284 103.999C89.4103 103.705 89.9663 103.514 90.6965 103.427V102.954C90.5827 102.941 90.5023 102.934 90.4554 102.934C90.1472 102.934 89.8223 103.005 89.4806 103.145C89.139 103.279 88.8409 103.46 88.5863 103.688C88.8543 102.623 89.5577 102.087 90.6965 102.08V97.7893L89.1691 96.5834H99.8912ZM100.374 97.2868C99.7974 98.0639 99.4122 98.6099 99.218 98.9248C99.0304 99.2396 98.8461 99.6449 98.6653 100.141L98.4944 99.9297C98.9433 98.8846 99.5228 97.9333 100.233 97.0758L100.374 97.2868ZM97.4192 100.633V105.075L97.168 104.944V100.502L97.4192 100.633ZM101.579 109.396L101.057 110.3H90.0836L89.9228 110.029H100.926L101.268 109.396C100.283 108.498 99.6032 107.547 99.228 106.542L99.5496 106.662C99.7773 107.198 100.019 107.64 100.273 107.989C100.534 108.33 100.97 108.799 101.579 109.396ZM102.273 97.7893C103.861 96.8715 105.542 96.4126 107.317 96.4126C108.061 96.4126 108.771 96.5064 109.448 96.6939C110.124 96.8815 110.677 97.1394 111.106 97.4677C111.896 98.0639 112.291 98.8042 112.291 99.6885C112.291 100.459 111.99 101.146 111.387 101.748C110.791 102.351 109.967 102.787 108.915 103.055C109.371 104.314 109.997 105.554 110.794 106.773C111.598 107.985 112.395 108.91 113.186 109.546C112.523 109.774 111.977 109.995 111.548 110.21C111.126 110.417 110.593 110.729 109.95 111.144C109.548 108.545 108.918 106.207 108.061 104.13C107.625 104.344 106.979 104.519 106.122 104.653V108.411L107.89 110.3H102.695L102.534 110.029H107.317L105.86 108.481V104.432C106.745 104.338 107.455 104.177 107.991 103.949C107.95 103.862 107.907 103.752 107.86 103.618C107.826 103.53 107.796 103.453 107.77 103.386C107.341 103.507 106.52 103.644 105.308 103.798V108.28L106.453 109.476H102.012L103.318 108.28V104.904C102.876 104.998 102.47 105.108 102.102 105.235L102.012 105.034C102.313 104.921 102.748 104.793 103.318 104.653V104.13C102.889 104.137 102.36 104.237 101.73 104.432C101.744 104.344 101.811 104.127 101.931 103.778C101.945 103.752 101.991 103.601 102.072 103.326L102.102 103.236C102.403 103.256 102.635 103.266 102.795 103.266C102.983 103.266 103.154 103.256 103.308 103.236V98.2917C102.993 98.1041 102.648 97.9366 102.273 97.7893ZM105.308 97.528V102.944C105.488 102.944 105.673 102.928 105.86 102.894V97.95C106.229 97.8496 106.674 97.7993 107.197 97.7993C107.88 97.7993 108.429 97.9031 108.845 98.1108C109.267 98.3118 109.602 98.6367 109.85 99.0856C109.347 98.6769 108.905 98.3989 108.523 98.2515C108.148 98.1041 107.686 98.0304 107.136 98.0304C106.768 98.0304 106.43 98.0706 106.122 98.151V102.894C107.153 102.706 107.97 102.459 108.573 102.15C109.116 101.869 109.521 101.477 109.789 100.975C110.017 100.559 110.131 100.137 110.131 99.7086C110.131 98.8712 109.786 98.2113 109.096 97.729C108.533 97.3337 107.86 97.1361 107.076 97.1361C106.379 97.1361 105.79 97.2667 105.308 97.528ZM110.161 103.557C110.376 104.261 110.724 105.031 111.206 105.869C111.695 106.699 112.211 107.416 112.754 108.019C113.363 108.689 114.094 109.292 114.944 109.828C113.417 110.23 111.946 110.873 110.533 111.757L110.332 111.596C110.942 111.194 111.601 110.833 112.312 110.511C113.028 110.19 113.732 109.935 114.422 109.747C113.698 109.265 113.075 108.736 112.553 108.16C112.037 107.584 111.511 106.833 110.975 105.909C110.573 105.199 110.185 104.365 109.809 103.407C110.493 103.152 111.002 102.907 111.337 102.673C112.369 101.949 112.884 101.008 112.884 99.8493C112.884 99.4741 112.827 99.1325 112.714 98.8243C112.6 98.5161 112.392 98.141 112.091 97.6988C112.412 97.9936 112.66 98.3486 112.834 98.764C113.015 99.1726 113.105 99.6014 113.105 100.05C113.105 100.801 112.854 101.477 112.352 102.08C111.849 102.676 111.119 103.169 110.161 103.557Z" fill="#07172E"/>
</svg>
