<svg width="60" height="60" viewBox="0 0 60 60" fill="none" xmlns="http://www.w3.org/2000/svg">
<path fill-rule="evenodd" clip-rule="evenodd" d="M9 0H57C58.6569 0 60 1.34315 60 3V11C60 11.5523 59.5523 12 59 12H52V34H50V3C50.0033 2.65856 50.0656 2.32026 50.184 2H20V11C20.0001 11.4044 19.7566 11.7691 19.383 11.924C19.2617 11.9746 19.1315 12.0004 19 12C18.7348 11.9999 18.4805 11.8945 18.293 11.707L16 9.414L13.707 11.707C13.421 11.9929 12.991 12.0784 12.6173 11.9237C12.2437 11.7689 12.0001 11.4044 12 11V2H9C8.44771 2 8 2.44772 8 3V50H43C43.5523 50 44 50.4477 44 51V57C44 57.5523 44.4477 58 45 58H49C49.5523 58 50 57.5523 50 57V48H52V57C52 58.6569 50.6569 60 49 60H3C1.34315 60 0 58.6569 0 57V51C0 50.4477 0.447715 50 1 50H6V3C6 1.34315 7.34315 0 9 0ZM3 58H42.171C42.0576 57.6788 41.9998 57.3406 42 57V52H2V57C2 57.5523 2.44772 58 3 58ZM18 8.586L16.707 7.293C16.3165 6.90262 15.6835 6.90262 15.293 7.293L14 8.586V2H18V8.586ZM52 10H58V3C58 2.44772 57.5523 2 57 2H53C52.4477 2 52 2.44772 52 3V10Z" fill="#061226"/>
<path fill-rule="evenodd" clip-rule="evenodd" d="M22 36H53C55.7614 36 58 38.2386 58 41C58 43.7614 55.7614 46 53 46H22C21.8035 45.9991 21.6116 45.9407 21.448 45.832L18.7 44H16C14.3431 44 13 42.6569 13 41C13 39.3431 14.3431 38 16 38H18.7L21.445 36.168C21.6095 36.0587 21.8025 36.0003 22 36ZM45 42H24V44H47V38H24V40H45V42ZM49 38H50V44H49V38ZM16 40C15.4477 40 15 40.4477 15 41C15 41.5523 15.4477 42 16 42H18V40H16ZM20 39.535L22 38.2V43.8L20 42.465V39.535ZM52 44H53C54.6569 44 56 42.6569 56 41C56 39.3431 54.6569 38 53 38H52V44Z" fill="#061226"/>
<rect x="12" y="14" width="4" height="2" fill="#061226"/>
<rect x="18" y="14" width="28" height="2" fill="#061226"/>
<rect x="12" y="20" width="24" height="2" fill="#061226"/>
<rect x="38" y="20" width="8" height="2" fill="#061226"/>
<rect x="12" y="26" width="34" height="2" fill="#061226"/>
<rect x="12" y="32" width="10" height="2" fill="#061226"/>
<rect x="24" y="32" width="22" height="2" fill="#061226"/>
</svg>
