<svg width="76" height="48" viewBox="0 0 76 48" fill="none" xmlns="http://www.w3.org/2000/svg">
<path fill-rule="evenodd" clip-rule="evenodd" d="M14 41C14 39.346 15.346 38 17 38C18.655 38 20 39.346 20 41C20 42.654 18.654 44 17 44C15.346 44 14 42.654 14 41ZM16 41C16 41.551 16.448 42 17 42C17.552 42 18 41.551 18 41C18 40.447 17.551 40 17 40C16.449 40 16 40.447 16 41Z" fill="#061226"/>
<path fill-rule="evenodd" clip-rule="evenodd" d="M58 41C58 39.346 59.346 38 61 38C62.654 38 64.001 39.346 64.001 41C64.001 42.654 62.654 44 61 44C59.346 44 58 42.654 58 41ZM60 41C60 41.551 60.448 42 61 42C61.552 42 62.001 41.551 62.001 41C62.001 40.447 61.552 40 61 40C60.448 40 60 40.447 60 41Z" fill="#061226"/>
<path fill-rule="evenodd" clip-rule="evenodd" d="M72.995 36.051V32.268C72.995 27.158 68.96 23 64 23H63.746L54.817 10.417C54.629 10.153 54.326 9.996 54.002 9.996H44C43.448 9.996 43.001 10.442 43 10.993C42.984 16.997 42.989 22.998 42.995 29L42.999 36H41.001V19C41.001 18.447 40.553 18 40.001 18H34.001H32V1C32 0.447 31.552 0 31 0H25H19H13C12.448 0 12 0.447 12 1V18H10H4C3.448 18 3 18.447 3 19V36.05C1.308 36.296 0 37.741 0 39.499C0 41.429 1.57 42.999 3.5 42.999H10.295C11.158 45.886 13.836 47.999 17.001 47.999C20.166 47.999 22.842 45.886 23.706 42.999H54.296C55.16 45.886 57.837 47.999 61.001 47.999C64.165 47.999 66.842 45.886 67.706 42.999H72.5C74.43 42.999 76 41.429 76 39.499C76 37.74 74.689 36.293 72.995 36.051ZM44.998 11.997H53.485L61.294 23H50V16.062C50 15.509 49.553 15.062 49 15.062C48.447 15.062 48 15.509 48 16.062V24C48 24.553 48.447 25 49 25H63.229H63.613H64C67.857 25 70.995 28.26 70.995 32.268V36H65.891C64.627 34.764 62.903 34 61 34C59.097 34 57.373 34.764 56.109 36H44.999L44.995 28.998V28.9972V28.9963V28.9955V28.9947V28.9938V28.993V28.9922V28.9913V28.9905V28.9896V28.9888V28.988C44.99 23.3243 44.985 17.6617 44.998 11.997ZM34.585 24.812C34.413 24.936 34.208 25 34.001 25C33.894 25 33.788 24.984 33.684 24.949L31 24.054L28.316 24.95C28.011 25.051 27.676 25 27.415 24.812C27.154 24.623 27 24.321 27 24V20H23V36H39.001V20H35.001V24C35.001 24.322 34.847 24.624 34.585 24.812ZM33.001 20V22.612L31.317 22.051C31.111 21.981 30.89 21.982 30.684 22.05L29 22.613V20H31H33.001ZM24 2H20V4.613L21.684 4.052C21.787 4.017 21.893 4 22 4C22.107 4 22.213 4.017 22.316 4.051L24 4.612V2ZM14 2H18V6C18 6.321 18.154 6.623 18.415 6.812C18.677 7 19.011 7.051 19.316 6.949L22 6.054L24.684 6.949C24.787 6.984 24.894 7 25 7C25.207 7 25.412 6.936 25.585 6.812C25.846 6.624 26 6.322 26 6V2H30V18H28H22H16H14V2ZM13 20H11V22.613L12.683 22.05C12.889 21.982 13.11 21.981 13.316 22.051L15 22.612V20H13ZM5 20H9V24C9 24.321 9.154 24.623 9.415 24.812C9.676 25 10.011 25.051 10.316 24.95L13 24.054L15.684 24.949C15.788 24.984 15.894 25 16 25C16.207 25 16.412 24.936 16.585 24.812C16.846 24.624 17 24.322 17 24V20H21V35.263C19.865 34.469 18.487 34 17 34C15.097 34 13.372 34.764 12.109 36H5V20ZM2 39.5C2 40.326 2.673 41 3.5 41H10C10 39.926 10.25 38.91 10.685 38H4H3.5C2.673 38 2 38.674 2 39.5ZM17 46C14.243 46 12 43.756 12 41C12 38.242 14.243 36 17 36C19.757 36 22 38.242 22 41C22 43.756 19.757 46 17 46ZM23.315 38C23.75 38.91 24 39.926 24 41H54C54 39.926 54.251 38.91 54.684 38H40H23.315ZM61 46C58.243 46 56 43.756 56 41C56 38.242 58.243 36 61 36C63.757 36 66 38.242 66 41C66 43.756 63.757 46 61 46ZM68 41H72.5C73.327 41 74 40.328 74 39.5C74 38.674 73.327 38 72.5 38H67.315C67.749 38.91 68 39.926 68 41Z" fill="#061226"/>
</svg>
