<svg width="62" height="62" viewBox="0 0 62 62" fill="none" xmlns="http://www.w3.org/2000/svg">
<path fill-rule="evenodd" clip-rule="evenodd" d="M28 0V12H3C1.346 12 0 13.346 0 15V35C0 36.654 1.346 38 3 38H28V62H62V0H28ZM3 14H28V16H2V15C2 14.449 2.449 14 3 14ZM28 21V18H2V21H28ZM3 36C2.449 36 2 35.552 2 35V23H28V36H3ZM30 60H60V2H58V4H56V2H54V4H52V2H50V4H48V2H46V4H44V2H42V4H40V2H38V4H36V2H34V4H32V2H30V60Z" fill="#061226"/>
<rect x="42" y="10" width="16" height="2" fill="#061226"/>
<rect x="42" y="14" width="16" height="2" fill="#061226"/>
<rect x="54" y="23" width="4" height="2" fill="#061226"/>
<rect x="32" y="23" width="18" height="2" fill="#061226"/>
<rect x="54" y="27" width="4" height="2" fill="#061226"/>
<rect x="32" y="27" width="18" height="2" fill="#061226"/>
<rect x="54" y="31" width="4" height="2" fill="#061226"/>
<rect x="32" y="31" width="18" height="2" fill="#061226"/>
<rect x="54" y="35" width="4" height="2" fill="#061226"/>
<rect x="32" y="35" width="18" height="2" fill="#061226"/>
<rect x="54" y="41" width="4" height="2" fill="#061226"/>
<rect x="42" y="41" width="8" height="2" fill="#061226"/>
<rect x="32" y="50" width="12" height="2" fill="#061226"/>
<rect x="54" y="54" width="4" height="2" fill="#061226"/>
<path fill-rule="evenodd" clip-rule="evenodd" d="M11 25.432C11.639 25.145 12.31 25 13 25C15.757 25 18 27.243 18 30C18 32.757 15.757 35 13 35C12.31 35 11.639 34.855 11 34.568C10.361 34.855 9.69 35 9 35C6.243 35 4 32.757 4 30C4 27.243 6.243 25 9 25C9.69 25 10.361 25.145 11 25.432ZM11.503 32.581C11.98 32.859 12.484 33 13 33C14.654 33 16 31.654 16 30C16 28.346 14.654 27 13 27C12.484 27 11.98 27.141 11.503 27.419L11 27.712L10.497 27.419C10.02 27.141 9.516 27 9 27C7.346 27 6 28.346 6 30C6 31.654 7.346 33 9 33C9.516 33 10.02 32.859 10.497 32.581L11 32.288L11.503 32.581Z" fill="#061226"/>
<path fill-rule="evenodd" clip-rule="evenodd" d="M2 42H24V48H26V56H22V62H0V54H4V50H2V42ZM6 44H4V48H5H22V44H20V46H18V44H16V46H14V44H12V46H10V44H8V46H6V44ZM20 60H2V56H4V58H6V56H8V58H10V56H12V58H14V56H16V58H18V56H20V60ZM22 54H24V50H22V52H20V50H18V52H16V50H14V52H12V50H10V52H8V50H6V54H21H22Z" fill="#061226"/>
</svg>
