<svg width="60" height="60" viewBox="0 0 60 60" fill="none" xmlns="http://www.w3.org/2000/svg">
<path fill-rule="evenodd" clip-rule="evenodd" d="M0.886076 60H59.1139C59.6033 60 60 59.6033 60 59.1139V0.886076C60 0.396709 59.6033 0 59.1139 0H0.886076C0.396709 0 0 0.396709 0 0.886076V59.1139C0 59.6033 0.396709 60 0.886076 60ZM58.2278 58.2278H1.77215V1.77215H58.2278V58.2278Z" fill="black"/>
<path d="M59.1139 11.8986H0.886076C0.396709 11.8986 0 11.5019 0 11.0125C0 10.5232 0.396709 10.1265 0.886076 10.1265H59.1139C59.6033 10.1265 60 10.5232 60 11.0125C60 11.5019 59.6033 11.8986 59.1139 11.8986Z" fill="black"/>
<path d="M18.6076 11.8987C18.1183 11.8987 17.7216 11.502 17.7216 11.0127V0.886076C17.7216 0.396709 18.1183 0 18.6076 0C19.097 0 19.4937 0.396709 19.4937 0.886076V11.0127C19.4937 11.502 19.097 11.8987 18.6076 11.8987Z" fill="black"/>
<path d="M59.1139 6.83563H32.5316C32.0422 6.83563 31.6455 6.43892 31.6455 5.94955C31.6455 5.46019 32.0422 5.06348 32.5316 5.06348H59.1139C59.6032 5.06348 59.9999 5.46019 59.9999 5.94955C59.9999 6.43892 59.6032 6.83563 59.1139 6.83563Z" fill="black"/>
<path d="M28.7342 6.83563C28.5013 6.83563 28.2722 6.74069 28.1076 6.57613C27.9431 6.41158 27.8481 6.18246 27.8481 5.94955C27.8481 5.71664 27.9431 5.48753 28.1076 5.32297C28.2722 5.15841 28.5013 5.06348 28.7342 5.06348C28.9671 5.06348 29.195 5.15841 29.3608 5.32297C29.5254 5.48753 29.6203 5.71664 29.6203 5.94955C29.6203 6.18246 29.5254 6.41158 29.3608 6.57613C29.1962 6.74069 28.9671 6.83563 28.7342 6.83563Z" fill="black"/>
<path fill-rule="evenodd" clip-rule="evenodd" d="M5.94931 34.6836H54.0506C54.5399 34.6836 54.9366 34.2869 54.9366 33.7975V16.076C54.9366 15.5867 54.5399 15.1899 54.0506 15.1899H5.94931C5.45994 15.1899 5.06323 15.5867 5.06323 16.076V33.7975C5.06323 34.2869 5.45994 34.6836 5.94931 34.6836ZM53.1645 32.9115H6.83538V16.9621H53.1645V32.9115Z" fill="black"/>
<path d="M48.9873 29.6203H11.0127C10.5233 29.6203 10.1266 29.2236 10.1266 28.7342C10.1266 28.2449 10.5233 27.8481 11.0127 27.8481H48.9873C49.4767 27.8481 49.8734 28.2449 49.8734 28.7342C49.8734 29.2236 49.4767 29.6203 48.9873 29.6203Z" fill="black"/>
<path d="M14.8094 29.6201C14.6405 29.6201 14.4697 29.5719 14.3187 29.4712C13.9115 29.1996 13.8015 28.6496 14.073 28.2424L19.1363 20.6475C19.3005 20.401 19.5772 20.2529 19.8734 20.2529H30C30.2349 20.2529 30.4604 20.3462 30.6266 20.5124L38.2215 28.1074C38.5675 28.4533 38.5675 29.0144 38.2215 29.3604C37.8754 29.7063 37.3144 29.7063 36.9684 29.3604L29.633 22.0251H20.3477L15.5475 29.2255C15.3767 29.4815 15.0956 29.6201 14.8094 29.6201Z" fill="black"/>
<path d="M45.1906 29.6201C44.9211 29.6201 44.6551 29.4977 44.4811 29.2657L40.9493 24.5568H32.5316C32.0422 24.5568 31.6455 24.1601 31.6455 23.6707C31.6455 23.1814 32.0422 22.7847 32.5316 22.7847H41.3923C41.6712 22.7847 41.9339 22.9159 42.1012 23.1391L45.8987 28.2024C46.1923 28.5939 46.113 29.1492 45.7216 29.4429C45.562 29.5624 45.3755 29.6201 45.1906 29.6201Z" fill="black"/>
<path fill-rule="evenodd" clip-rule="evenodd" d="M7.21518 44.8101H19.8734C20.3628 44.8101 20.7595 44.4133 20.7595 43.924V38.8607C20.7595 38.3713 20.3628 37.9746 19.8734 37.9746H7.21518C6.72581 37.9746 6.3291 38.3713 6.3291 38.8607V43.924C6.3291 44.4133 6.72581 44.8101 7.21518 44.8101ZM18.9873 43.0379H8.10125V39.7468H18.9873V43.0379Z" fill="black"/>
<path d="M54.0507 39.7468H24.9367C24.4474 39.7468 24.0507 39.3501 24.0507 38.8607C24.0507 38.3713 24.4474 37.9746 24.9367 37.9746H54.0507C54.54 37.9746 54.9367 38.3713 54.9367 38.8607C54.9367 39.3501 54.54 39.7468 54.0507 39.7468Z" fill="black"/>
<path d="M54.0507 44.8102H24.9367C24.4474 44.8102 24.0507 44.4135 24.0507 43.9242C24.0507 43.4348 24.4474 43.0381 24.9367 43.0381H54.0507C54.54 43.0381 54.9367 43.4348 54.9367 43.9242C54.9367 44.4135 54.54 44.8102 54.0507 44.8102Z" fill="black"/>
<path fill-rule="evenodd" clip-rule="evenodd" d="M7.21518 54.9365H19.8734C20.3628 54.9365 20.7595 54.5398 20.7595 54.0504V48.9872C20.7595 48.4978 20.3628 48.1011 19.8734 48.1011H7.21518C6.72581 48.1011 6.3291 48.4978 6.3291 48.9872V54.0504C6.3291 54.5398 6.72581 54.9365 7.21518 54.9365ZM18.9873 53.1644H8.10125V49.8732H18.9873V53.1644Z" fill="black"/>
<path d="M54.0507 49.8732H24.9367C24.4474 49.8732 24.0507 49.4765 24.0507 48.9872C24.0507 48.4978 24.4474 48.1011 24.9367 48.1011H54.0507C54.54 48.1011 54.9367 48.4978 54.9367 48.9872C54.9367 49.4765 54.54 49.8732 54.0507 49.8732Z" fill="black"/>
<path d="M54.0507 54.9367H24.9367C24.4474 54.9367 24.0507 54.54 24.0507 54.0506C24.0507 53.5613 24.4474 53.1646 24.9367 53.1646H54.0507C54.54 53.1646 54.9367 53.5613 54.9367 54.0506C54.9367 54.54 54.54 54.9367 54.0507 54.9367Z" fill="black"/>
</svg>
