<svg width="59" height="62" viewBox="0 0 59 62" fill="none" xmlns="http://www.w3.org/2000/svg">
<path d="M15.1381 19.1952C14.8777 18.9349 14.4557 18.9349 14.1953 19.1952C13.9349 19.4556 13.9349 19.8777 14.1953 20.138L23.8619 29.8047C24.1224 30.0652 24.5443 30.065 24.8047 29.8047C25.0651 29.5443 25.0651 29.1222 24.8047 28.8619L15.1381 19.1952Z" fill="#061226" stroke="#061226"/>
<path fill-rule="evenodd" clip-rule="evenodd" d="M54.177 38.3809C54.7793 41.795 53.7599 45.3012 51.4349 47.8894L55.7835 52.1986C57.4055 53.8059 57.4055 56.4212 55.7835 58.0283C54.1616 59.6355 51.5226 59.6355 49.9007 58.0283C49.1245 57.2593 47.8623 57.2593 47.0861 58.0283L44.2832 60.8058C44.0222 61.0647 43.5983 61.0647 43.3372 60.8058C43.0759 60.547 43.0759 60.1272 43.3372 59.8682L46.1401 57.0908C47.4376 55.8049 49.5493 55.8049 50.8468 57.0908C51.947 58.1811 53.7372 58.1811 54.8375 57.0908C55.9403 55.9979 55.9403 54.2294 54.8375 53.1363L50.4828 48.821C45.8897 52.72 38.8152 50.4863 33.4991 47.6818C33.4914 47.6777 33.4866 47.6763 33.4818 47.6746C33.4247 47.6548 33.377 47.6075 28.3238 42.5963C24.6508 38.9538 18.3331 32.6885 7.44469 21.9047C7.39826 21.8585 7.35892 21.806 7.32788 21.7485C4.32352 16.1815 2.02058 8.82322 6.54284 4.34196C9.28574 1.62392 13.0513 0.551102 16.6256 1.17018C16.7611 1.19365 16.8861 1.25809 16.9835 1.35449L25.5883 9.88119C25.6857 9.97772 25.7506 10.1014 25.7743 10.2359C26.0554 11.8293 25.9832 13.4421 25.5906 14.9719C25.5854 15.0012 25.5763 15.0298 25.567 15.0583C25.0143 17.1436 23.8617 19.0926 22.1423 20.6344L34.5309 32.9107C37.1667 29.9962 41.1234 28.6356 45.0268 29.3135C45.1622 29.3369 45.287 29.4012 45.3843 29.4976L53.9909 38.0262C54.0883 38.1227 54.1532 38.2466 54.177 38.3809ZM52.8927 38.8129L44.5905 30.586C43.6035 30.4357 42.6638 30.4361 41.7236 30.558L52.9182 41.6509C53.0446 40.7174 53.0398 39.7622 52.8927 38.8129ZM16.1899 2.44295L24.4903 10.668C24.6374 11.6175 24.6423 12.5726 24.5159 13.5062L13.3247 2.41643C14.287 2.29086 15.2261 2.29643 16.1899 2.44295ZM8.46162 21.0368L34.2158 46.5575C39.2114 49.178 46.0389 51.3894 50.03 47.4346C51.2404 46.2352 52.1072 44.772 52.5835 43.1944L40.1621 30.8858C38.5657 31.3561 37.1006 32.2162 35.8865 33.4194C35.6297 33.6737 35.37 33.9631 35.0926 34.3043C34.8451 34.609 34.3814 34.6378 34.0985 34.3572L20.681 21.0612C20.3966 20.7795 20.4259 20.3137 20.7435 20.069C22.2944 18.8746 23.562 17.1008 24.1811 15.0497L11.7636 2.74473C10.1682 3.21584 8.70354 4.07637 7.48925 5.27966C3.24932 9.48115 6.25234 16.9175 8.46162 21.0368Z" fill="#061226"/>
<path d="M51.4349 47.8894L51.063 47.5553L50.7448 47.9095L51.083 48.2446L51.4349 47.8894ZM54.177 38.3809L54.6694 38.294L54.6693 38.2936L54.177 38.3809ZM55.7835 52.1986L55.4316 52.5538L55.7835 52.1986ZM55.7835 58.0283L55.4316 57.6732L55.4316 57.6732L55.7835 58.0283ZM49.9007 58.0283L50.2526 57.6732L50.2526 57.6732L49.9007 58.0283ZM47.0861 58.0283L46.7342 57.6732L46.7341 57.6732L47.0861 58.0283ZM44.2832 60.8058L43.9313 60.4506L43.9311 60.4508L44.2832 60.8058ZM43.3372 60.8058L43.6893 60.4508L43.6891 60.4505L43.3372 60.8058ZM43.3372 59.8682L43.6892 60.2234L43.3372 59.8682ZM46.1401 57.0908L46.492 57.4459L46.492 57.4459L46.1401 57.0908ZM50.8468 57.0908L51.1988 56.7356L51.1988 56.7356L50.8468 57.0908ZM54.8375 57.0908L55.1894 57.4459L54.8375 57.0908ZM54.8375 53.1363L55.1895 52.7812L55.1894 52.7811L54.8375 53.1363ZM50.4828 48.821L50.8347 48.4659L50.5089 48.143L50.1592 48.4399L50.4828 48.821ZM33.4991 47.6818L33.2657 48.124L33.2658 48.124L33.4991 47.6818ZM33.4818 47.6746L33.6458 47.2023L33.6457 47.2022L33.4818 47.6746ZM28.3238 42.5963L27.9718 42.9513H27.9718L28.3238 42.5963ZM7.44469 21.9047L7.09224 22.2593L7.09285 22.2599L7.44469 21.9047ZM7.32788 21.7485L7.76793 21.5111L7.76789 21.511L7.32788 21.7485ZM6.54284 4.34196L6.1909 3.9868L6.54284 4.34196ZM16.6256 1.17018L16.5402 1.66285L16.5403 1.66285L16.6256 1.17018ZM16.9835 1.35449L17.3354 0.999325L17.3352 0.999086L16.9835 1.35449ZM25.5883 9.88119L25.9403 9.52603L25.9403 9.52603L25.5883 9.88119ZM25.7743 10.2359L25.2819 10.3226L25.2819 10.3228L25.7743 10.2359ZM25.5906 14.9719L25.1063 14.8476L25.1016 14.8657L25.0983 14.8842L25.5906 14.9719ZM25.567 15.0583L25.0914 14.9042L25.0872 14.9171L25.0837 14.9302L25.567 15.0583ZM22.1423 20.6344L21.8085 20.2621L21.4136 20.6162L21.7903 20.9896L22.1423 20.6344ZM34.5309 32.9107L34.1789 33.2659L34.5507 33.6343L34.9017 33.2461L34.5309 32.9107ZM45.0268 29.3135L44.9412 29.8061L44.9414 29.8061L45.0268 29.3135ZM45.3843 29.4976L45.7363 29.1425L45.7363 29.1425L45.3843 29.4976ZM53.9909 38.0262L53.639 38.3813L53.639 38.3814L53.9909 38.0262ZM44.5905 30.586L44.9424 30.2308L44.8267 30.1162L44.6657 30.0917L44.5905 30.586ZM52.8927 38.8129L53.3868 38.7363L53.3616 38.5736L53.2447 38.4577L52.8927 38.8129ZM41.7236 30.558L41.6594 30.0621L40.6455 30.1935L41.3717 30.9131L41.7236 30.558ZM52.9182 41.6509L52.5662 42.0061L53.2789 42.7123L53.4136 41.718L52.9182 41.6509ZM24.4903 10.668L24.9844 10.5915L24.9592 10.4287L24.8422 10.3128L24.4903 10.668ZM16.1899 2.44295L16.5418 2.08779L16.4261 1.97311L16.265 1.94863L16.1899 2.44295ZM24.5159 13.5062L24.1639 13.8613L24.8767 14.5676L25.0113 13.5733L24.5159 13.5062ZM13.3247 2.41643L13.26 1.92063L12.2473 2.05276L12.9727 2.77159L13.3247 2.41643ZM34.2158 46.5575L33.8638 46.9127L33.9171 46.9655L33.9835 47.0003L34.2158 46.5575ZM8.46162 21.0368L8.02099 21.2731L8.05643 21.3392L8.10968 21.392L8.46162 21.0368ZM50.03 47.4346L50.3819 47.7898L50.3819 47.7898L50.03 47.4346ZM52.5835 43.1944L53.0622 43.339L53.1491 43.051L52.9355 42.8393L52.5835 43.1944ZM40.1621 30.8858L40.5141 30.5306L40.3042 30.3226L40.0208 30.4061L40.1621 30.8858ZM35.8865 33.4194L36.2383 33.7746L36.2384 33.7745L35.8865 33.4194ZM35.0926 34.3043L34.7046 33.9889L34.7045 33.989L35.0926 34.3043ZM34.0985 34.3572L34.4507 34.0022L34.4505 34.002L34.0985 34.3572ZM20.681 21.0612L20.329 21.4164L20.681 21.0612ZM20.7435 20.069L20.4384 19.6729L20.4383 19.6729L20.7435 20.069ZM24.1811 15.0497L24.6597 15.1942L24.7467 14.9062L24.533 14.6945L24.1811 15.0497ZM11.7636 2.74473L12.1155 2.38957L11.9055 2.18147L11.622 2.2652L11.7636 2.74473ZM7.48925 5.27966L7.84119 5.63482L7.48925 5.27966ZM51.8069 48.2236C54.2333 45.5225 55.2987 41.8615 54.6694 38.294L53.6846 38.4677C54.2598 41.7285 53.2866 45.0799 51.063 47.5553L51.8069 48.2236ZM56.1354 51.8434L51.7869 47.5343L51.083 48.2446L55.4316 52.5538L56.1354 51.8434ZM56.1354 58.3835C57.9549 56.5807 57.9548 53.6464 56.1354 51.8434L55.4316 52.5538C56.8562 53.9654 56.8561 56.2616 55.4316 57.6732L56.1354 58.3835ZM49.5488 58.3835C51.3655 60.1838 54.3187 60.1838 56.1354 58.3835L55.4316 57.6732C54.0046 59.0872 51.6796 59.0872 50.2526 57.6732L49.5488 58.3835ZM47.438 58.3835C48.0193 57.8076 48.9675 57.8076 49.5488 58.3835L50.2526 57.6732C49.2815 56.711 47.7053 56.711 46.7342 57.6732L47.438 58.3835ZM44.6352 61.1609L47.438 58.3835L46.7341 57.6732L43.9313 60.4506L44.6352 61.1609ZM42.9851 61.1608C43.4411 61.6131 44.1794 61.6131 44.6354 61.1608L43.9311 60.4508C43.865 60.5164 43.7555 60.5164 43.6893 60.4508L42.9851 61.1608ZM42.9853 59.5131C42.5266 59.9676 42.5265 60.7065 42.9854 61.161L43.6891 60.4505C43.6253 60.3874 43.6252 60.2868 43.6892 60.2234L42.9853 59.5131ZM45.7881 56.7356L42.9853 59.5131L43.6892 60.2234L46.492 57.4459L45.7881 56.7356ZM51.1988 56.7356C49.7064 55.2566 47.2805 55.2566 45.7881 56.7356L46.492 57.4459C47.5947 56.3532 49.3923 56.3532 50.4949 57.4459L51.1988 56.7356ZM54.4855 56.7356C53.5801 57.6328 52.1041 57.6328 51.1988 56.7356L50.4949 57.4459C51.7899 58.7294 53.8943 58.7294 55.1894 57.4459L54.4855 56.7356ZM54.4855 53.4914C55.391 54.3889 55.3909 55.8384 54.4855 56.7356L55.1894 57.4459C56.4897 56.1574 56.4896 54.0699 55.1895 52.7812L54.4855 53.4914ZM50.1308 49.1762L54.4855 53.4915L55.1894 52.7811L50.8347 48.4659L50.1308 49.1762ZM33.2658 48.124C35.9493 49.5397 39.1051 50.8275 42.1927 51.2603C45.2838 51.6937 48.3635 51.2758 50.8063 49.2022L50.1592 48.4399C48.0089 50.2652 45.2549 50.6799 42.3315 50.27C39.4045 49.8597 36.365 48.6284 33.7324 47.2396L33.2658 48.124ZM33.3179 48.147C33.3198 48.1476 33.3216 48.1483 33.3218 48.1483C33.3225 48.1486 33.3218 48.1483 33.3209 48.148C33.3186 48.1472 33.3136 48.1455 33.3072 48.143C33.293 48.1374 33.279 48.131 33.2657 48.124L33.7325 47.2396C33.7115 47.2285 33.6912 47.2194 33.6715 47.2116C33.6623 47.2081 33.6547 47.2054 33.65 47.2037C33.6479 47.203 33.646 47.2023 33.6454 47.2021C33.6444 47.2018 33.6451 47.202 33.6458 47.2023L33.3179 48.147ZM27.9718 42.9513C30.4979 45.4565 31.774 46.722 32.4255 47.3635C32.7499 47.6829 32.9239 47.852 33.0209 47.9427C33.0874 48.0049 33.1826 48.1 33.318 48.147L33.6457 47.2022C33.7525 47.2393 33.8203 47.3211 33.7039 47.2123C33.618 47.132 33.4535 46.9723 33.1271 46.651C32.4773 46.0111 31.203 44.7474 28.6759 42.2413L27.9718 42.9513ZM7.09285 22.2599C17.9811 33.0436 24.2988 39.3088 27.9718 42.9513L28.6759 42.2413C25.0028 38.5987 18.685 32.3333 7.79654 21.5494L7.09285 22.2599ZM6.88783 21.9858C6.9424 22.087 7.01137 22.1789 7.09224 22.2593L7.79714 21.55C7.78515 21.5381 7.77545 21.525 7.76793 21.5111L6.88783 21.9858ZM6.1909 3.9868C3.78368 6.3722 3.21882 9.50888 3.61672 12.6999C4.01359 15.8827 5.37175 19.1766 6.88787 21.9859L7.76789 21.511C6.27965 18.7533 4.98416 15.5846 4.60904 12.5762C4.23494 9.57607 4.77974 6.79298 6.89478 4.69711L6.1909 3.9868ZM16.7109 0.677518C12.9826 0.0317605 9.05256 1.15107 6.1909 3.9868L6.89478 4.69711C9.51891 2.09676 13.12 1.07044 16.5402 1.66285L16.7109 0.677518ZM17.3352 0.999086C17.165 0.830702 16.9471 0.718407 16.7109 0.677513L16.5403 1.66285C16.5752 1.6689 16.6071 1.68548 16.6318 1.70989L17.3352 0.999086ZM25.9403 9.52603L17.3354 0.999325L16.6316 1.70965L25.2364 10.2364L25.9403 9.52603ZM26.2667 10.1491C26.225 9.91226 26.1107 9.69493 25.9403 9.52603L25.2364 10.2363C25.2608 10.2605 25.2763 10.2906 25.2819 10.3226L26.2667 10.1491ZM26.0749 15.0962C26.4849 13.4987 26.5604 11.8139 26.2667 10.149L25.2819 10.3228C25.5504 11.8446 25.4815 13.3855 25.1063 14.8476L26.0749 15.0962ZM26.0427 15.2124C26.051 15.1869 26.0708 15.1273 26.0829 15.0595L25.0983 14.8842C25.0995 14.8776 25.1004 14.875 25.0993 14.8789C25.0988 14.8808 25.098 14.8836 25.0966 14.8879C25.0952 14.8923 25.0936 14.8973 25.0914 14.9042L26.0427 15.2124ZM22.4761 21.0067C24.2696 19.3984 25.4732 17.3639 26.0504 15.1864L25.0837 14.9302C24.5554 16.9233 23.4538 18.7868 21.8085 20.2621L22.4761 21.0067ZM34.8828 32.5556L22.4942 20.2792L21.7903 20.9896L34.1789 33.2659L34.8828 32.5556ZM45.1123 28.8208C41.0409 28.1138 36.9117 29.5328 34.16 32.5753L34.9017 33.2461C37.4218 30.4596 41.2059 29.1574 44.9412 29.8061L45.1123 28.8208ZM45.7363 29.1425C45.566 28.9738 45.348 28.8617 45.1122 28.8208L44.9414 29.8061C44.9764 29.8122 45.0081 29.8287 45.0324 29.8528L45.7363 29.1425ZM54.3428 37.671L45.7363 29.1425L45.0324 29.8528L53.639 38.3813L54.3428 37.671ZM54.6693 38.2936C54.6274 38.0574 54.5134 37.84 54.3428 37.671L53.639 38.3814C53.6632 38.4054 53.6789 38.4358 53.6847 38.4682L54.6693 38.2936ZM44.2385 30.9411L52.5408 39.168L53.2447 38.4577L44.9424 30.2308L44.2385 30.9411ZM41.7879 31.0538C42.6843 30.9377 43.577 30.9375 44.5152 31.0803L44.6657 30.0917C43.63 29.934 42.6433 29.9346 41.6594 30.0621L41.7879 31.0538ZM53.2701 41.2957L42.0756 30.2028L41.3717 30.9131L52.5662 42.0061L53.2701 41.2957ZM52.3986 38.8894C52.5382 39.7902 52.5428 40.697 52.4227 41.5838L53.4136 41.718C53.5464 40.7379 53.5414 39.7343 53.3868 38.7363L52.3986 38.8894ZM24.8422 10.3128L16.5418 2.08779L15.8379 2.79811L24.1384 11.0232L24.8422 10.3128ZM25.0113 13.5733C25.1441 12.593 25.139 11.5895 24.9844 10.5915L23.9962 10.7445C24.1357 11.6455 24.1405 12.5522 24.0204 13.4391L25.0113 13.5733ZM12.9727 2.77159L24.1639 13.8613L24.8678 13.151L13.6766 2.06127L12.9727 2.77159ZM16.265 1.94863C15.2535 1.79486 14.2674 1.78919 13.26 1.92063L13.3894 2.91223C14.3067 2.79254 15.1986 2.79801 16.1147 2.93727L16.265 1.94863ZM34.5677 46.2024L8.81356 20.6817L8.10968 21.392L33.8638 46.9127L34.5677 46.2024ZM49.678 47.0795C47.8345 48.9062 45.3125 49.3409 42.5672 48.9664C39.819 48.5915 36.9222 47.4126 34.448 46.1147L33.9835 47.0003C36.505 48.323 39.5198 49.5599 42.432 49.9572C45.3471 50.3548 48.2343 49.9178 50.3819 47.7898L49.678 47.0795ZM52.1049 43.0499C51.6523 44.5488 50.8286 45.9393 49.678 47.0795L50.3819 47.7898C51.6521 46.5311 52.562 44.9953 53.0622 43.339L52.1049 43.0499ZM39.8102 31.2409L52.2316 43.5496L52.9355 42.8393L40.5141 30.5306L39.8102 31.2409ZM36.2384 33.7745C37.3939 32.6295 38.7866 31.8122 40.3034 31.3654L40.0208 30.4061C38.3448 30.8999 36.8074 31.8029 35.5345 33.0642L36.2384 33.7745ZM35.4806 34.6197C35.7489 34.2896 35.9966 34.014 36.2383 33.7746L35.5346 33.0641C35.2628 33.3334 34.991 33.6366 34.7046 33.9889L35.4806 34.6197ZM33.7464 34.7122C34.2409 35.2026 35.0482 35.1519 35.4807 34.6196L34.7045 33.989C34.6419 34.066 34.5219 34.0729 34.4507 34.0022L33.7464 34.7122ZM20.329 21.4164L33.7466 34.7123L34.4505 34.002L21.0329 20.7061L20.329 21.4164ZM20.4383 19.6729C19.8816 20.1018 19.8293 20.9212 20.329 21.4164L21.0329 20.7061C20.964 20.6378 20.9702 20.5255 21.0486 20.4651L20.4383 19.6729ZM23.7024 14.9052C23.1138 16.8551 21.9077 18.5414 20.4384 19.6729L21.0485 20.4652C22.6811 19.2079 24.0101 17.3465 24.6597 15.1942L23.7024 14.9052ZM11.4116 3.09989L23.8291 15.4049L24.533 14.6945L12.1155 2.38957L11.4116 3.09989ZM7.84119 5.63482C8.99687 4.48962 10.3893 3.67189 11.9052 3.22426L11.622 2.2652C9.94709 2.75978 8.41022 3.66313 7.13731 4.9245L7.84119 5.63482ZM8.90225 20.8005C7.80774 18.7598 6.53341 15.9261 6.0498 13.1046C5.56565 10.28 5.88772 7.57059 7.84119 5.63482L7.13731 4.9245C4.85086 7.19023 4.55447 10.2998 5.06417 13.2735C5.57441 16.2504 6.90622 19.1946 8.02099 21.2731L8.90225 20.8005Z" fill="#061226"/>
<path d="M38.2193 56.2091C37.9405 55.9303 37.488 55.9303 37.2093 56.2091C36.9302 56.4881 36.9302 56.9404 37.2093 57.2193L40.7807 60.7907C41.0595 61.0698 41.512 61.0698 41.7907 60.7907C42.0698 60.5119 42.0698 60.0596 41.7907 59.7806L38.2193 56.2091Z" fill="#061226" stroke="#061226"/>
<path d="M34.2193 56.2091C33.9405 55.9303 33.488 55.9303 33.2093 56.2091C32.9302 56.4881 32.9302 56.9404 33.2093 57.2193L36.7807 60.7907C37.0595 61.0698 37.512 61.0698 37.7907 60.7907C38.0698 60.5119 38.0698 60.0596 37.7907 59.7806L34.2193 56.2091Z" fill="#061226" stroke="#061226"/>
<path d="M30.2193 56.2091C29.9405 55.9303 29.488 55.9303 29.2093 56.2091C28.9302 56.4881 28.9302 56.9404 29.2093 57.2193L32.7807 60.7907C33.0595 61.0698 33.512 61.0698 33.7907 60.7907C34.0698 60.5119 34.0698 60.0596 33.7907 59.7806L30.2193 56.2091Z" fill="#061226" stroke="#061226"/>
<path d="M26.2194 56.2091C25.9404 55.9303 25.4882 55.9303 25.2092 56.2091C24.9303 56.4881 24.9303 56.9404 25.2092 57.2193L28.7806 60.7907C29.0595 61.0698 29.512 61.0698 29.7908 60.7907C30.0697 60.5119 30.0697 60.0596 29.7908 59.7806L26.2194 56.2091Z" fill="#061226" stroke="#061226"/>
<path d="M22.2194 56.2091C21.9404 55.9303 21.4882 55.9303 21.2092 56.2091C20.9303 56.4881 20.9303 56.9404 21.2092 57.2193L24.7806 60.7907C25.0596 61.0698 25.5118 61.0698 25.7908 60.7907C26.0697 60.5119 26.0697 60.0596 25.7908 59.7806L22.2194 56.2091Z" fill="#061226" stroke="#061226"/>
<path d="M18.2194 56.2091C17.9404 55.9303 17.4882 55.9303 17.2092 56.2091C16.9303 56.4881 16.9303 56.9404 17.2092 57.2193L20.7806 60.7907C21.0596 61.0698 21.5118 61.0698 21.7908 60.7907C22.0697 60.5119 22.0697 60.0596 21.7908 59.7806L18.2194 56.2091Z" fill="#061226" stroke="#061226"/>
<path d="M14.2194 56.2091C13.9404 55.9303 13.4882 55.9303 13.2092 56.2091C12.9303 56.4881 12.9303 56.9404 13.2092 57.2193L16.7806 60.7907C17.0596 61.0698 17.5118 61.0698 17.7908 60.7907C18.0697 60.5119 18.0697 60.0596 17.7908 59.7806L14.2194 56.2091Z" fill="#061226" stroke="#061226"/>
<path d="M9.21938 56.2091C8.94038 55.9303 8.48824 55.9303 8.20925 56.2091C7.93025 56.4881 7.93025 56.9404 8.20925 57.2193L11.7806 60.7907C12.0596 61.0698 12.5118 61.0698 12.7908 60.7907C13.0697 60.5119 13.0697 60.0596 12.7908 59.7806L9.21938 56.2091Z" fill="#061226" stroke="#061226"/>
<path fill-rule="evenodd" clip-rule="evenodd" d="M28 47.5C28 49.4299 26.4299 51 24.5 51C22.5701 51 21 49.4299 21 47.5C21 45.5701 22.5701 44 24.5 44C26.4299 44 28 45.5701 28 47.5ZM26.6 47.5C26.6 46.3419 25.6579 45.4 24.5 45.4C23.3421 45.4 22.4 46.3419 22.4 47.5C22.4 48.6578 23.3421 49.6 24.5 49.6C25.6579 49.6 26.6 48.6578 26.6 47.5Z" fill="#061226"/>
<path d="M24.5 51.5C26.706 51.5 28.5 49.706 28.5 47.5H27.5C27.5 49.1538 26.1538 50.5 24.5 50.5V51.5ZM20.5 47.5C20.5 49.706 22.294 51.5 24.5 51.5V50.5C22.8462 50.5 21.5 49.1538 21.5 47.5H20.5ZM24.5 43.5C22.294 43.5 20.5 45.294 20.5 47.5H21.5C21.5 45.8462 22.8462 44.5 24.5 44.5V43.5ZM28.5 47.5C28.5 45.294 26.706 43.5 24.5 43.5V44.5C26.1538 44.5 27.5 45.8462 27.5 47.5H28.5ZM24.5 45.9C25.3818 45.9 26.1 46.6181 26.1 47.5H27.1C27.1 46.0658 25.9341 44.9 24.5 44.9V45.9ZM22.9 47.5C22.9 46.6181 23.6182 45.9 24.5 45.9V44.9C23.0659 44.9 21.9 46.0658 21.9 47.5H22.9ZM24.5 49.1C23.6182 49.1 22.9 48.3817 22.9 47.5H21.9C21.9 48.9339 23.0659 50.1 24.5 50.1V49.1ZM26.1 47.5C26.1 48.3817 25.3818 49.1 24.5 49.1V50.1C25.9341 50.1 27.1 48.9339 27.1 47.5H26.1Z" fill="#061226"/>
<path fill-rule="evenodd" clip-rule="evenodd" d="M2 29.4999C2 28.1215 3.1215 27 4.5 27C5.8785 27 7 28.1216 7 29.4999C7 30.8784 5.8785 32 4.5 32C3.1215 32 2 30.8784 2 29.4999ZM3.25 29.4999C3.25 30.1893 3.81075 30.75 4.5 30.75C5.18925 30.75 5.75 30.1893 5.75 29.4999C5.75 28.8107 5.18925 28.25 4.5 28.25C3.81075 28.25 3.25 28.8107 3.25 29.4999Z" fill="#061226"/>
<path d="M4.5 26.5C2.84537 26.5 1.5 27.8453 1.5 29.4999H2.5C2.5 28.3976 3.39763 27.5 4.5 27.5V26.5ZM7.5 29.4999C7.5 27.8455 6.15465 26.5 4.5 26.5V27.5C5.60235 27.5 6.5 28.3977 6.5 29.4999H7.5ZM4.5 32.5C6.15466 32.5 7.5 31.1545 7.5 29.4999H6.5C6.5 30.6023 5.60234 31.5 4.5 31.5V32.5ZM1.5 29.4999C1.5 31.1545 2.84534 32.5 4.5 32.5V31.5C3.39766 31.5 2.5 30.6023 2.5 29.4999H1.5ZM4.5 30.25C4.08691 30.25 3.75 29.9132 3.75 29.4999H2.75C2.75 30.4654 3.53459 31.25 4.5 31.25V30.25ZM5.25 29.4999C5.25 29.9132 4.91309 30.25 4.5 30.25V31.25C5.46541 31.25 6.25 30.4654 6.25 29.4999H5.25ZM4.5 28.75C4.91312 28.75 5.25 29.0869 5.25 29.4999H6.25C6.25 28.5346 5.46538 27.75 4.5 27.75V28.75ZM3.75 29.4999C3.75 29.0869 4.08688 28.75 4.5 28.75V27.75C3.53462 27.75 2.75 28.5346 2.75 29.4999H3.75Z" fill="#061226"/>
<path fill-rule="evenodd" clip-rule="evenodd" d="M53 15.5C53 17.9812 50.9814 20 48.5 20C46.0186 20 44 17.9812 44 15.5C44 13.0188 46.0186 11 48.5 11C50.9814 11 53 13.0188 53 15.5ZM51.6154 15.5001C51.6154 13.7822 50.2178 12.3848 48.5 12.3848C46.7822 12.3848 45.3846 13.7822 45.3846 15.5001C45.3846 17.218 46.7822 18.6155 48.5 18.6155C50.2178 18.6155 51.6154 17.218 51.6154 15.5001Z" fill="#061226"/>
<path d="M48.5 20.5C51.2575 20.5 53.5 18.2574 53.5 15.5H52.5C52.5 17.7051 50.7052 19.5 48.5 19.5V20.5ZM43.5 15.5C43.5 18.2574 45.7425 20.5 48.5 20.5V19.5C46.2948 19.5 44.5 17.7051 44.5 15.5H43.5ZM48.5 10.5C45.7425 10.5 43.5 12.7426 43.5 15.5H44.5C44.5 13.2949 46.2948 11.5 48.5 11.5V10.5ZM53.5 15.5C53.5 12.7426 51.2575 10.5 48.5 10.5V11.5C50.7052 11.5 52.5 13.2949 52.5 15.5H53.5ZM48.5 12.8848C49.9416 12.8848 51.1154 14.0584 51.1154 15.5001H52.1154C52.1154 13.5061 50.4939 11.8848 48.5 11.8848V12.8848ZM45.8846 15.5001C45.8846 14.0584 47.0584 12.8848 48.5 12.8848V11.8848C46.5061 11.8848 44.8846 13.5061 44.8846 15.5001H45.8846ZM48.5 18.1155C47.0584 18.1155 45.8846 16.9419 45.8846 15.5001H44.8846C44.8846 17.4942 46.5061 19.1155 48.5 19.1155V18.1155ZM51.1154 15.5001C51.1154 16.9419 49.9416 18.1155 48.5 18.1155V19.1155C50.4939 19.1155 52.1154 17.4942 52.1154 15.5001H51.1154Z" fill="#061226"/>
<circle cx="43" cy="3" r="1" fill="#061226" stroke="#061226"/>
<circle cx="57" cy="27" r="1" fill="#061226" stroke="#061226"/>
<circle cx="39" cy="25" r="1" fill="#061226" stroke="#061226"/>
<circle cx="32" cy="13" r="1" fill="#061226" stroke="#061226"/>
<circle cx="25.5" cy="31.5" r="0.5" fill="#061226" stroke="#061226"/>
<circle cx="32" cy="50" r="1" fill="#061226" stroke="#061226"/>
<circle cx="8" cy="45" r="1" fill="#061226" stroke="#061226"/>
<circle cx="2" cy="16" r="1" fill="#061226" stroke="#061226"/>
</svg>
