<svg width="20" height="18" viewBox="0 0 20 18" fill="none" xmlns="http://www.w3.org/2000/svg">
<mask id="mask0" mask-type="alpha" maskUnits="userSpaceOnUse" x="0" y="0" width="20" height="18">
<path fill-rule="evenodd" clip-rule="evenodd" d="M0 0H20V18H0V0Z" fill="white"/>
</mask>
<g mask="url(#mask0)">
<path fill-rule="evenodd" clip-rule="evenodd" d="M0.353185 8.63084L4.9616 10.4089L6.74543 16.3384C6.85934 16.7183 7.30892 16.8586 7.60709 16.6066L10.1758 14.442C10.445 14.2152 10.8284 14.2038 11.11 14.4151L15.7432 17.8923C16.0622 18.1319 16.514 17.9512 16.5941 17.5528L19.9882 0.676635C20.0755 0.241626 19.6617 -0.1218 19.2607 0.0386793L0.348018 7.58036C-0.118814 7.76642 -0.114898 8.44952 0.353185 8.63084ZM6.45801 9.46236L15.4645 3.72825C15.6263 3.62565 15.793 3.85177 15.654 3.98503L8.22067 11.1273C7.95967 11.3786 7.79101 11.7151 7.74317 12.0802L7.49026 14.0197C7.45667 14.2788 7.10484 14.3044 7.03551 14.054L6.06184 10.5169C5.95018 10.1134 6.11268 9.6827 6.45801 9.46236Z" fill="white"/>
</g>
</svg>
