<svg width="19" height="16" viewBox="0 0 19 16" fill="none" xmlns="http://www.w3.org/2000/svg">
<mask id="mask0" mask-type="alpha" maskUnits="userSpaceOnUse" x="0" y="0" width="19" height="16">
<path fill-rule="evenodd" clip-rule="evenodd" d="M0 0H19V16H0V0Z" fill="white"/>
</mask>
<g mask="url(#mask0)">
<path fill-rule="evenodd" clip-rule="evenodd" d="M18.5693 1.84662C18.2709 1.98263 17.9642 2.09776 17.6506 2.19106C18.0216 1.75915 18.3048 1.25097 18.4775 0.695104C18.5164 0.570362 18.4762 0.434036 18.3766 0.352477C18.2769 0.270918 18.139 0.261068 18.0294 0.327812C17.3633 0.734189 16.6451 1.02599 15.8918 1.19683C15.1328 0.434036 14.1021 0 13.0368 0C10.7878 0 8.95806 1.88201 8.95806 4.19521C8.95806 4.37748 8.96909 4.55848 8.99123 4.73728C6.20062 4.4852 3.60591 3.07419 1.82413 0.826229C1.76062 0.746167 1.66278 0.703063 1.5628 0.711416C1.46259 0.719375 1.3725 0.77753 1.32193 0.866811C0.960399 1.50463 0.769481 2.23385 0.769481 2.97632C0.769481 3.98717 1.12021 4.94603 1.74031 5.69558C1.55177 5.62844 1.3689 5.54444 1.19414 5.44499C1.10045 5.39109 0.986141 5.39204 0.893057 5.44681C0.799973 5.50197 0.741671 5.60291 0.738989 5.71308C0.738683 5.73183 0.738683 5.75035 0.738683 5.7691C0.738683 7.27806 1.5281 8.63675 2.73536 9.37701C2.63155 9.36629 2.52797 9.35085 2.425 9.33052C2.31882 9.30995 2.20957 9.34809 2.13801 9.43154C2.06622 9.5146 2.04255 9.63067 2.0758 9.73658C2.52261 11.1713 3.67271 12.2268 5.06338 12.5484C3.90998 13.2915 2.5911 13.6806 1.2064 13.6806C0.917343 13.6806 0.627058 13.6634 0.342443 13.6286C0.201169 13.6114 0.0661779 13.6973 0.0179886 13.8354C-0.0302007 13.9736 0.0209765 14.1275 0.141028 14.207C1.91989 15.3801 3.97671 16 6.08923 16C10.2419 16 12.8396 13.986 14.2874 12.2964C16.0932 10.1894 17.1286 7.40052 17.1286 4.64524C17.1286 4.53011 17.1269 4.4138 17.1236 4.29805C17.8358 3.74581 18.4493 3.07789 18.9482 2.3099C19.0242 2.19319 19.0158 2.03929 18.9281 1.93189C18.8405 1.82448 18.6941 1.78965 18.5693 1.84662Z" fill="white"/>
</g>
</svg>
